<?xml version="1.0" standalone="no"?>
<!DOCTYPE svg PUBLIC "-//W3C//DTD SVG 20010904//EN"
 "http://www.w3.org/TR/2001/REC-SVG-20010904/DTD/svg10.dtd">
<svg version="1.0" xmlns="http://www.w3.org/2000/svg"
 width="1065.000000pt" height="527.000000pt" viewBox="0 0 1065.000000 527.000000"
 preserveAspectRatio="xMidYMid meet">

<g transform="translate(0.000000,527.000000) scale(0.100000,-0.100000)"
fill="#000000" stroke="none">
<path d="M7392 5148 c6 -18 28 -21 28 -4 0 9 -7 16 -16 16 -9 0 -14 -5 -12
-12z"/>
<path d="M7366 5115 c4 -8 10 -15 15 -15 5 0 9 7 9 15 0 8 -7 15 -15 15 -9 0
-12 -6 -9 -15z"/>
<path d="M3637 5053 c-11 -10 -8 -266 3 -283 20 -30 30 14 30 138 l0 122 50 0
c38 0 50 4 50 15 0 12 -14 15 -63 15 -35 0 -67 -3 -70 -7z"/>
<path d="M4148 5026 c-4 -33 -2 -34 29 -34 26 0 33 4 33 19 0 10 -4 19 -10 19
-5 0 -10 -5 -10 -11 0 -5 -4 -7 -10 -4 -5 3 -10 14 -9 23 0 11 2 12 6 4 2 -6
9 -10 14 -6 16 10 10 20 -15 22 -20 1 -24 -4 -28 -32z"/>
<path d="M4617 5040 c-34 -40 -13 -99 40 -113 13 -3 26 0 30 5 3 7 1 8 -5 4
-7 -4 -12 -3 -12 3 0 5 6 12 13 15 8 4 7 5 -3 5 -44 -3 -50 1 -50 36 l0 35 50
0 c38 0 50 4 50 15 0 25 -91 20 -113 -5z"/>
<path d="M5030 5045 c0 -11 11 -15 39 -15 l39 0 -4 -135 c-3 -111 -1 -135 10
-135 13 0 29 69 24 110 0 8 0 48 0 88 l2 72 35 0 c24 0 35 5 35 15 0 12 -17
15 -90 15 -73 0 -90 -3 -90 -15z"/>
<path d="M5515 4990 c0 -52 4 -71 15 -75 9 -4 11 -8 4 -13 -16 -10 -29 -122
-14 -122 6 0 8 -4 5 -10 -4 -6 23 -10 74 -10 65 0 81 3 81 15 0 12 -14 15 -65
15 l-65 0 0 55 0 55 49 0 c34 0 51 4 55 15 4 12 -5 15 -49 15 l-55 0 0 50 0
50 70 0 c56 0 70 3 70 15 0 12 -16 15 -88 15 l-87 0 0 -70z"/>
<path d="M5996 4922 c0 -76 4 -143 8 -150 4 -7 31 -12 67 -12 47 0 59 3 59 16
0 12 -9 15 -42 14 -24 -2 -49 -2 -55 -1 -10 1 -13 35 -13 136 0 101 -3 135
-12 135 -10 0 -13 -34 -12 -138z"/>
<path d="M6436 5043 c4 -10 9 -53 10 -96 1 -43 5 -85 8 -94 4 -9 1 -22 -5 -29
-6 -8 -8 -25 -5 -39 6 -24 10 -25 81 -25 60 0 75 3 75 15 0 12 -14 15 -65 15
l-65 0 0 55 0 55 56 0 c73 0 70 24 -4 28 l-52 3 0 50 0 49 70 0 c56 0 70 3 70
15 0 12 -17 15 -91 15 -83 0 -90 -2 -83 -17z"/>
<path d="M6890 4925 c0 -113 2 -135 15 -135 10 0 15 11 15 35 0 19 4 35 10 35
6 0 6 9 0 24 -6 17 -5 26 3 30 9 3 9 5 0 5 -9 1 -13 19 -13 56 l0 55 55 0 c37
0 55 -4 55 -12 0 -9 4 -8 10 2 22 34 12 40 -70 40 l-80 0 0 -135z"/>
<path d="M7368 4925 c2 -75 6 -133 11 -131 4 3 8 63 10 135 2 104 0 131 -11
131 -10 0 -12 -28 -10 -135z"/>
<path d="M7801 5053 c3 -21 -2 -33 -13 -27 -7 4 -8 3 -4 -5 9 -13 -22 -101
-35 -101 -5 0 -9 -11 -9 -24 0 -14 -6 -31 -13 -38 -17 -17 -29 -62 -21 -82 7
-19 28 -22 22 -4 -3 7 1 24 8 37 7 14 11 28 9 32 -3 4 1 9 9 12 7 3 13 19 14
35 0 17 6 41 13 54 7 13 12 27 11 31 -1 4 11 15 28 25 16 9 30 21 30 25 0 5
-4 6 -9 3 -5 -4 -7 3 -4 14 4 15 0 20 -16 20 -11 0 -20 -3 -20 -7z"/>
<path d="M3775 4970 c0 -43 -5 -64 -15 -71 -12 -8 -9 -9 10 -7 24 3 25 7 27
71 2 47 -1 67 -10 67 -8 0 -12 -19 -12 -60z"/>
<path d="M7048 4978 c-2 -36 -7 -52 -15 -50 -7 1 -13 -5 -13 -13 0 -9 -7 -18
-15 -21 -8 -4 -15 -15 -15 -26 0 -17 2 -17 24 6 13 15 29 26 35 26 7 0 9 5 6
10 -3 6 1 13 9 16 18 7 22 59 6 69 -5 3 -10 12 -10 18 0 7 4 6 10 -3 8 -13 10
-12 10 3 0 9 -7 17 -14 17 -11 0 -16 -15 -18 -52z"/>
<path d="M7828 4988 c-5 -15 16 -61 24 -53 14 14 29 -26 22 -60 -4 -21 -10
-32 -14 -25 -9 15 -92 9 -98 -7 -3 -10 15 -13 67 -13 40 0 72 -4 72 -10 2 -11
5 -25 9 -37 1 -5 2 -11 1 -15 0 -5 6 -8 14 -8 10 0 15 10 15 30 0 19 -5 30
-14 30 -12 0 -18 16 -28 75 -2 11 -9 26 -15 33 -7 7 -13 21 -13 31 0 30 -34
53 -42 29z m22 -18 c0 -5 -2 -10 -4 -10 -3 0 -8 5 -11 10 -3 6 -1 10 4 10 6 0
11 -4 11 -10z m-53 -126 c-3 -3 -12 -4 -19 -1 -8 3 -5 6 6 6 11 1 17 -2 13 -5z"/>
<path d="M4136 4965 c-14 -7 -22 -22 -24 -43 -2 -17 -7 -32 -11 -32 -7 0 -31
-74 -31 -94 0 -3 9 -6 20 -6 12 0 20 7 20 18 0 14 -2 15 -10 2 -8 -13 -10 -12
-10 3 0 15 10 17 80 17 73 0 80 -2 80 -20 0 -11 5 -20 12 -20 6 0 20 -8 31
-17 19 -17 20 -17 9 3 -6 12 -9 23 -7 26 7 7 -17 71 -32 86 -7 7 -13 24 -13
37 0 45 -61 66 -114 40z m82 -47 c5 -24 7 -46 5 -50 -6 -11 -75 -9 -93 2 -11
8 -12 12 -3 18 7 4 13 22 15 40 2 29 5 32 35 32 29 0 32 -3 41 -42z"/>
<path d="M4697 4916 c-3 -8 2 -16 14 -19 16 -4 20 -12 17 -39 -2 -20 -8 -32
-15 -30 -7 1 -13 -5 -13 -13 0 -7 -8 -19 -17 -25 -17 -11 -17 -11 0 -6 10 3
25 6 33 6 9 0 13 4 9 9 -3 5 -1 12 5 16 5 3 10 16 10 29 0 12 5 27 12 34 9 9
8 12 -4 12 -9 0 -18 9 -21 20 -6 23 -22 26 -30 6z"/>
<path d="M4752 4850 c0 -14 2 -19 5 -12 2 6 2 18 0 25 -3 6 -5 1 -5 -13z"/>
<path d="M7020 4842 c0 -32 16 -60 27 -48 4 5 2 11 -4 13 -7 3 -13 14 -12 26
0 21 1 21 9 2 8 -19 9 -19 9 1 1 12 -6 24 -14 28 -11 4 -15 -2 -15 -22z"/>
<path d="M4590 4810 c0 -13 7 -20 20 -20 18 0 19 3 10 20 -6 11 -15 20 -20 20
-6 0 -10 -9 -10 -20z"/>
<path d="M7067 4796 c-4 -15 -6 -31 -2 -34 10 -10 16 6 13 35 l-3 28 -8 -29z"/>
<path d="M4050 4775 c0 -8 4 -15 10 -15 5 0 7 7 4 15 -4 8 -8 15 -10 15 -2 0
-4 -7 -4 -15z"/>
<path d="M3395 4484 c-144 -16 -405 -99 -570 -181 -114 -58 -280 -156 -415
-247 -58 -39 -109 -73 -115 -75 -54 -22 -445 -397 -508 -487 -12 -17 -50 -69
-85 -115 -72 -96 -208 -317 -245 -399 -97 -216 -112 -276 -105 -420 4 -79 8
-98 43 -165 30 -60 52 -88 104 -131 67 -55 126 -78 141 -54 6 9 15 8 39 -4 17
-9 33 -16 36 -16 3 0 7 0 9 0 3 0 -4 -19 -14 -43 -10 -23 -31 -92 -45 -152
-21 -90 -26 -136 -27 -251 -1 -149 9 -214 48 -301 21 -50 93 -155 114 -168 5
-3 21 6 35 21 14 15 25 22 25 15 0 -6 -7 -14 -15 -17 -22 -9 -18 -23 4 -17 11
3 21 12 23 22 3 12 6 10 10 -7 4 -13 4 -21 1 -18 -4 3 -13 0 -22 -8 -26 -22
-184 -85 -266 -106 -106 -27 -166 -25 -256 7 -55 19 -94 26 -149 27 -80 0
-113 -12 -181 -65 -20 -16 -39 -26 -43 -22 -3 3 -6 -1 -6 -11 0 -10 -5 -14
-12 -10 -6 4 -8 3 -5 -3 4 -6 1 -16 -7 -22 -42 -35 -46 -207 -8 -291 30 -66
129 -155 217 -195 22 -10 51 -27 64 -37 13 -10 32 -18 42 -18 11 0 19 -4 19
-10 0 -5 3 -9 8 -8 4 1 21 -4 37 -11 90 -37 419 -70 514 -52 29 6 74 11 100
11 140 1 654 147 936 265 220 92 577 287 731 399 227 165 270 201 383 317 85
89 128 126 137 121 7 -4 33 -48 58 -98 96 -198 341 -397 541 -439 91 -19 243
-19 325 1 61 14 263 105 303 136 18 13 17 15 -8 26 -15 7 -24 8 -20 2 4 -6 -6
-10 -23 -10 -16 0 -37 -9 -47 -20 -10 -11 -14 -20 -9 -20 5 0 2 -4 -6 -10 -9
-5 -19 -5 -26 1 -7 6 -17 2 -29 -11 -12 -13 -25 -18 -37 -14 -14 4 -21 0 -25
-16 -4 -16 -8 -18 -14 -8 -7 11 -10 10 -21 -1 -10 -10 -10 -12 0 -7 6 4 12 3
12 -3 0 -19 -50 -25 -77 -8 -6 4 -18 1 -26 -8 -13 -13 -16 -12 -22 8 -5 17 -8
19 -13 7 -4 -8 -13 -16 -20 -18 -8 -1 -11 2 -7 8 3 5 -1 10 -10 10 -9 0 -14
-4 -11 -8 3 -5 -1 -9 -9 -9 -8 0 -12 4 -9 9 3 4 0 8 -5 8 -6 0 -11 -4 -11 -9
0 -11 -97 -13 -104 -3 -3 5 8 6 24 4 18 -3 35 2 45 12 19 19 5 22 -14 3 -11
-10 -12 -9 -6 2 4 7 2 17 -5 21 -22 14 -2 27 37 25 21 -2 44 2 51 8 10 8 15 8
20 -1 4 -6 28 -10 52 -10 31 0 39 3 25 8 -11 4 -26 5 -32 3 -7 -3 -21 -2 -30
1 -14 6 -15 9 -4 15 7 5 10 14 6 21 -5 8 -12 5 -22 -10 -10 -14 -19 -18 -26
-12 -15 12 -69 13 -61 1 9 -16 -3 -10 -17 8 -10 11 -10 14 -1 9 7 -4 12 -1 12
9 0 9 -4 14 -9 11 -5 -4 -22 -1 -38 5 -15 6 -29 9 -30 7 -1 -2 -9 6 -18 17
-12 16 -14 17 -9 3 3 -10 2 -18 -4 -18 -7 0 -10 35 -3 48 0 1 10 -7 21 -18 17
-17 24 -19 43 -9 20 11 21 11 8 -4 -12 -15 -11 -17 3 -17 9 0 16 7 16 16 0 14
3 14 15 4 8 -7 15 -9 15 -5 0 4 8 1 17 -6 9 -8 14 -9 10 -2 -4 7 1 14 14 18
11 4 18 12 16 19 -3 7 0 13 6 13 7 0 21 4 32 8 20 7 20 6 1 -9 -11 -9 -17 -19
-13 -22 4 -4 15 2 24 12 10 11 26 18 37 16 10 -2 23 1 30 8 8 8 6 9 -9 4 -11
-4 -17 -4 -14 0 9 10 50 16 44 6 -3 -5 0 -12 6 -16 7 -4 9 -3 6 2 -9 15 7 34
32 39 17 3 21 0 17 -11 -3 -9 -2 -12 5 -9 6 4 8 13 6 20 -6 13 28 47 37 38 3
-4 6 -1 6 5 0 8 7 9 24 2 13 -4 35 -7 49 -6 15 2 24 -1 21 -5 -3 -5 -12 -9
-20 -9 -21 0 -17 -18 6 -25 11 -3 19 -9 19 -13 -1 -4 -1 -14 0 -22 3 -32 21
14 21 55 l1 40 15 -27 c10 -19 19 -25 31 -21 13 5 15 2 10 -11 -5 -14 -3 -17
8 -12 16 6 20 -4 8 -20 -5 -5 0 -1 10 10 13 14 15 21 6 27 -10 6 -10 11 0 23
9 10 9 16 3 16 -6 0 -16 10 -22 23 -8 16 -3 13 19 -10 17 -18 35 -33 41 -33
14 0 13 -33 -2 -49 -11 -10 -10 -11 5 -6 9 4 17 15 17 25 0 10 3 26 7 36 5 14
2 16 -15 12 -12 -4 -22 -2 -22 3 0 11 31 11 49 0 9 -6 10 -11 2 -15 -6 -4 -9
-11 -6 -16 3 -5 0 -20 -7 -35 -9 -20 -17 -26 -35 -22 -13 2 -28 -2 -34 -10 -9
-10 -8 -13 7 -12 42 4 64 -2 64 -17 0 -8 4 -13 8 -10 4 2 13 -4 20 -14 7 -12
8 -21 2 -25 -6 -3 -10 1 -10 9 0 9 -7 16 -15 16 -8 0 -15 8 -15 17 0 20 -13 9
-16 -15 -2 -9 -8 -18 -13 -20 -6 -2 -11 -14 -11 -27 0 -13 -7 -52 -16 -86 -12
-48 -15 -92 -11 -179 5 -123 27 -205 83 -305 42 -76 133 -185 154 -185 5 0 25
-15 45 -34 58 -57 203 -135 219 -119 3 4 6 2 6 -4 0 -13 68 -31 168 -43 84
-11 212 0 281 25 39 13 111 76 111 96 0 6 4 8 9 5 12 -8 35 21 59 72 20 41 21
61 21 333 0 159 2 293 6 299 3 5 1 18 -4 28 -9 16 -6 18 24 17 26 0 45 -12 87
-53 35 -35 59 -51 71 -48 15 4 16 2 6 -11 -10 -12 -10 -16 2 -24 8 -5 18 -9
22 -9 5 0 5 -4 2 -10 -3 -5 -1 -10 4 -10 6 0 11 8 12 18 0 13 2 12 9 -5 7 -17
18 -23 42 -24 30 -1 31 -2 8 -8 l-25 -7 25 -7 c14 -4 50 -7 81 -7 70 0 120
-10 113 -21 -3 -5 48 -9 113 -9 109 0 119 1 120 19 2 18 -7 19 -130 20 -72 1
-133 4 -136 6 -2 3 32 5 77 5 91 0 113 5 105 26 -3 8 0 14 6 14 6 0 11 -7 11
-15 0 -10 10 -15 33 -14 17 1 24 3 15 6 -9 2 -15 10 -12 18 3 7 0 16 -7 21 -8
5 -10 3 -4 -6 5 -9 2 -10 -14 -5 -12 4 -27 2 -34 -3 -20 -16 -57 -24 -57 -13
0 6 12 14 26 17 16 4 23 11 20 21 -4 9 4 15 24 19 25 5 28 9 20 24 -7 13 -18
17 -39 14 -33 -5 -44 5 -30 26 7 12 9 12 9 2 0 -22 23 -8 25 15 1 16 -6 24
-24 28 -24 7 -25 8 -6 15 18 8 17 9 -6 9 -54 2 -267 64 -334 97 -91 46 -99 54
-130 132 -56 139 -42 383 36 635 18 58 20 72 9 95 -27 58 -40 92 -35 92 3 0
19 -30 36 -67 l31 -68 13 45 c20 71 149 371 200 467 25 49 60 118 76 154 25
58 64 123 115 194 8 11 29 42 47 70 49 75 85 95 171 95 103 -1 206 -52 242
-122 23 -44 14 -82 -72 -340 -41 -123 -95 -302 -120 -398 -25 -96 -52 -197
-60 -225 -23 -78 -64 -330 -64 -391 0 -30 -4 -54 -10 -54 -6 0 -10 -30 -10
-70 0 -64 3 -73 30 -102 35 -37 37 -59 10 -104 -22 -35 -103 -94 -130 -94 -9
0 -19 -3 -22 -6 -6 -6 10 -50 42 -118 11 -22 17 -43 14 -48 -3 -4 -1 -8 4 -8
5 0 21 -27 37 -61 19 -43 31 -57 38 -50 6 6 23 11 38 11 15 0 32 7 39 15 7 8
18 15 26 15 7 0 39 23 71 51 57 49 58 50 67 27 20 -52 30 -68 49 -74 15 -5 17
-8 6 -15 -10 -6 -2 -19 34 -54 26 -26 47 -50 47 -53 1 -8 75 -63 110 -82 13
-7 31 -19 38 -27 7 -7 22 -13 32 -13 10 0 21 -4 24 -9 3 -5 18 -12 32 -15 15
-4 33 -13 40 -21 7 -7 36 -16 64 -20 27 -4 48 -10 45 -15 -3 -4 38 -18 91 -30
80 -19 113 -22 198 -17 55 3 117 10 136 16 19 6 52 13 73 16 21 3 35 10 32 15
-3 5 16 12 41 16 69 10 157 47 264 111 74 44 124 85 223 184 71 71 126 132
123 137 -3 5 6 20 19 32 14 13 25 28 25 33 0 5 9 21 19 36 11 15 34 70 51 122
27 79 31 104 27 164 -4 69 -23 157 -48 225 -42 117 -182 282 -417 493 -50 45
-52 65 -21 177 11 41 22 76 23 77 1 2 25 -19 52 -45 27 -26 74 -60 104 -77 49
-27 64 -30 140 -30 96 0 153 20 205 72 94 93 245 316 245 361 0 12 4 22 9 22
8 0 67 135 99 225 41 113 52 254 27 330 -62 180 -281 363 -463 385 -81 11
-274 -2 -332 -20 -74 -24 -188 -76 -269 -123 -46 -26 -85 -46 -88 -44 -2 2 12
45 32 95 43 113 46 163 9 197 -15 14 -30 22 -34 20 -5 -3 -10 0 -12 7 -4 10
-73 14 -284 16 l-280 4 -37 -36 c-20 -19 -37 -41 -37 -49 0 -7 -7 -23 -16 -35
-15 -22 -15 -22 -42 -2 -15 10 -56 29 -92 42 -55 19 -84 23 -185 22 -106 -1
-131 -4 -215 -32 -52 -17 -96 -29 -98 -27 -3 2 14 62 38 132 23 70 44 157 47
193 4 45 8 59 14 45 5 -13 8 5 8 48 1 53 -2 67 -14 67 -8 0 -15 9 -15 20 0 11
-4 20 -10 20 -5 0 -12 11 -16 25 -8 33 -130 146 -186 172 -102 49 -289 56
-378 15 -46 -22 -123 -94 -155 -147 -9 -16 -28 -41 -40 -55 -13 -14 -26 -36
-30 -48 -4 -13 -26 -52 -50 -86 -24 -34 -47 -74 -50 -88 -4 -15 -13 -29 -19
-31 -7 -3 -16 -18 -19 -34 -4 -15 -20 -43 -37 -62 -16 -18 -30 -42 -30 -53 0
-10 -6 -21 -14 -24 -8 -3 -18 -18 -21 -32 -7 -31 -38 -72 -54 -72 -6 0 -11 -9
-11 -20 0 -11 -9 -29 -21 -41 -11 -11 -18 -23 -15 -26 3 -3 -3 -18 -14 -33
-11 -16 -20 -35 -20 -44 0 -9 -9 -24 -20 -33 -11 -10 -20 -26 -20 -36 0 -11
-4 -15 -12 -11 -6 4 -8 3 -5 -3 3 -5 -7 -35 -24 -68 -16 -32 -29 -66 -29 -76
0 -9 -3 -19 -7 -21 -11 -4 -110 -213 -131 -277 l-18 -54 -70 67 c-76 75 -189
136 -284 157 -133 29 -318 -13 -535 -121 -77 -38 -142 -67 -144 -65 -2 3 -8
67 -12 144 -24 420 -133 654 -451 967 -241 239 -393 329 -658 390 -103 24
-292 38 -385 28z m182 -50 c-3 -3 -12 -4 -19 -1 -8 3 -5 6 6 6 11 1 17 -2 13
-5z m-55 -18 c-12 -6 -39 -10 -58 -8 -48 6 -29 17 33 19 43 1 46 0 25 -11z
m88 -19 c0 -2 -15 -3 -34 -3 -29 0 -32 2 -18 12 11 8 23 9 34 3 10 -5 18 -11
18 -12z m37 16 c-9 -2 -14 -9 -11 -15 4 -7 2 -8 -5 -4 -15 10 -4 26 17 25 15
-1 15 -2 -1 -6z m123 -13 c0 -5 -5 -10 -11 -10 -5 0 -7 5 -4 10 3 6 8 10 11
10 2 0 4 -4 4 -10z m-225 -27 c36 -6 38 -7 15 -14 -20 -6 -16 -7 20 -8 77 -3
122 -12 215 -43 115 -38 193 -82 330 -183 341 -254 515 -587 515 -985 -1 -126
-22 -267 -55 -365 -47 -137 -193 -420 -266 -516 -15 -19 -35 -47 -45 -64 -10
-16 -44 -62 -76 -101 -32 -39 -58 -75 -58 -81 0 -27 -504 -533 -531 -533 -5 0
-24 -14 -43 -30 -43 -39 -122 -97 -183 -135 -26 -16 -95 -58 -153 -94 -202
-123 -509 -262 -725 -326 -49 -14 -123 -37 -164 -51 -159 -54 -425 -108 -576
-118 -101 -6 -288 10 -378 33 -107 28 -201 76 -265 136 -44 41 -54 57 -58 90
-7 55 5 67 70 73 47 4 67 0 118 -23 59 -27 67 -28 172 -22 177 9 237 29 521
170 44 22 130 68 191 103 62 35 118 64 125 64 8 0 9 3 4 9 -6 4 -50 16 -99 24
-49 9 -114 28 -145 43 -68 33 -165 131 -182 182 -6 20 -15 42 -20 47 -19 24
-21 189 -4 280 56 303 146 538 310 810 117 195 427 598 513 668 12 10 20 22
17 27 -5 9 76 87 120 115 25 16 127 97 145 115 3 3 29 18 59 34 93 50 159 37
253 -51 70 -67 68 -86 -30 -234 -59 -91 -170 -280 -243 -414 -29 -55 -66 -122
-82 -150 -15 -27 -34 -63 -41 -80 -133 -290 -154 -339 -207 -485 -104 -289
-137 -430 -153 -667 -9 -118 0 -119 124 -3 36 33 70 60 77 60 6 0 55 42 110
94 54 52 123 113 153 137 76 59 500 484 500 501 0 8 18 32 41 53 22 22 68 75
102 119 34 43 77 97 96 120 38 46 136 194 199 301 66 112 122 243 149 345 21
81 24 110 20 195 -6 119 -5 116 -40 186 -48 99 -196 197 -331 220 -205 35
-578 -63 -871 -228 -104 -59 -294 -188 -374 -255 -69 -57 -70 -58 -78 -58 -5
0 -52 -41 -105 -91 -300 -279 -515 -590 -563 -812 -7 -36 -29 -44 -71 -24 -42
21 -91 95 -99 151 -22 146 116 443 354 761 89 119 365 398 471 477 265 197
581 370 795 437 191 60 318 80 410 64z m3335 -3 c0 -5 -8 -10 -17 -10 -15 0
-16 2 -3 10 19 12 20 12 20 0z m133 -15 c13 -11 17 -16 10 -12 -6 5 -17 6 -23
2 -6 -4 -9 -1 -8 7 2 8 -5 12 -19 10 -13 -2 -23 1 -23 5 0 16 40 9 63 -12z m2
-54 c-2 -5 13 -13 35 -20 71 -21 127 -116 105 -175 -7 -17 -18 -46 -24 -63 -7
-18 -16 -33 -20 -33 -4 0 -13 -21 -19 -48 -15 -58 -133 -393 -322 -917 -34
-93 -84 -240 -112 -325 -27 -85 -58 -173 -69 -196 -10 -23 -19 -46 -19 -51 0
-6 -7 -24 -15 -39 -8 -16 -15 -53 -15 -81 0 -29 -6 -70 -14 -90 -34 -96 -59
-194 -126 -488 -17 -77 -44 -196 -60 -265 -52 -228 -71 -334 -85 -475 -17
-166 -20 -415 -5 -415 22 0 10 -62 -18 -90 -65 -64 -305 -63 -437 3 -82 41
-146 98 -196 174 -60 92 -69 122 -76 243 -7 137 34 410 105 690 11 41 29 120
42 175 12 55 37 150 55 210 19 61 42 137 51 170 9 33 20 65 24 70 3 6 19 48
34 95 15 47 32 94 37 105 5 11 28 70 50 130 23 61 47 124 54 140 33 83 199
414 206 409 5 -2 18 19 31 48 12 28 31 68 41 87 50 92 61 117 59 129 -2 6 1
12 7 12 8 0 18 16 73 123 12 23 25 44 28 47 13 11 50 82 50 96 0 8 4 14 9 14
11 0 24 34 26 68 0 13 8 28 18 33 9 6 17 18 17 29 0 10 7 25 15 34 8 8 15 20
15 26 0 14 81 154 92 158 5 2 8 10 8 17 0 7 15 33 33 57 18 24 43 60 56 80 12
21 41 54 64 74 41 35 44 36 114 32 42 -2 69 1 66 6 -4 5 -1 6 6 2 6 -4 9 -11
6 -15z m129 -7 c5 -14 4 -15 -9 -4 -17 14 -19 20 -6 20 5 0 12 -7 15 -16z
m-444 -38 c0 -3 -4 -8 -10 -11 -5 -3 -10 -1 -10 4 0 6 5 11 10 11 6 0 10 -2
10 -4z m602 -20 c7 4 8 2 4 -4 -11 -18 -26 -14 -25 6 0 10 3 12 6 4 2 -6 10
-9 15 -6z m-115 -2 c-3 -3 -12 -4 -19 -1 -8 3 -5 6 6 6 11 1 17 -2 13 -5z m39
-26 c4 -7 3 -8 -4 -4 -15 9 -16 -6 -2 -20 7 -7 6 -11 -3 -11 -8 0 -13 9 -12
21 4 31 9 34 21 14z m181 -110 c-3 -7 -5 -2 -5 12 0 14 2 19 5 13 2 -7 2 -19
0 -25z m-227 -48 c-8 -5 -19 -10 -25 -10 -5 0 -3 5 5 10 8 5 20 10 25 10 6 0
3 -5 -5 -10z m-3522 -159 c7 -1 11 -5 8 -9 -2 -4 12 -7 32 -6 20 0 43 -6 51
-13 7 -8 20 -12 27 -9 7 3 20 -2 29 -10 12 -12 12 -18 2 -28 -9 -10 -14 -11
-20 -2 -6 7 -7 6 -4 -4 2 -8 13 -16 25 -18 12 -2 22 -8 22 -13 0 -5 5 -9 10
-9 7 0 7 7 0 21 -6 11 -9 28 -7 37 3 12 5 9 6 -7 1 -21 3 -22 19 -10 15 13 16
12 4 -2 -10 -14 -10 -20 2 -32 17 -16 11 -28 -9 -21 -7 3 -15 -2 -19 -12 -6
-15 -4 -15 11 -3 15 12 16 12 10 -3 -4 -11 0 -18 11 -22 13 -3 12 -4 -3 -3
-11 1 -21 -3 -22 -8 0 -6 3 -9 9 -7 5 1 7 -2 3 -8 -5 -8 -11 -8 -21 1 -7 6
-20 9 -28 6 -8 -3 -22 1 -33 9 -17 15 -17 15 5 11 26 -6 28 2 7 29 -13 16 -14
16 -9 2 7 -20 4 -21 -92 -22 -56 -1 -60 1 -56 19 3 11 10 27 16 35 6 8 -1 5
-15 -5 -15 -11 -25 -23 -22 -27 2 -5 0 -8 -6 -8 -5 0 -18 -3 -28 -7 -16 -6
-16 -5 -4 10 8 10 9 17 3 17 -6 0 -14 -5 -17 -10 -4 -6 -11 -8 -16 -5 -5 3 -6
-1 -3 -10 5 -13 2 -14 -17 -7 -13 5 -34 8 -46 6 -16 -3 -21 0 -17 10 3 8 16
13 30 11 13 -1 27 2 30 6 3 5 0 9 -5 9 -6 0 -11 10 -11 23 -1 22 -1 21 -13 -3
-7 -15 -21 -25 -34 -26 -26 -2 -31 21 -8 30 21 8 19 44 -2 49 -14 4 -14 5 3 6
12 0 27 -5 33 -13 6 -8 21 -16 32 -19 16 -4 18 -3 9 8 -8 9 -8 15 0 20 6 3 7
11 4 17 -5 7 -12 5 -20 -7 -8 -10 -16 -16 -19 -13 -3 2 7 15 22 29 14 13 23
19 19 12 -3 -6 -2 -14 4 -18 5 -3 10 2 10 12 0 15 2 15 9 3 6 -8 7 -18 4 -24
-3 -5 -1 -6 5 -2 6 4 8 14 5 23 -4 11 -3 14 5 9 7 -4 19 -3 29 2 9 5 24 8 32
7 9 -2 22 -4 29 -4z m-255 -32 c-8 -8 -13 -7 -18 2 -5 8 -4 10 3 5 7 -4 12 -2
12 5 0 7 3 9 7 6 4 -4 2 -12 -4 -18z m-18 -39 c-3 -5 -12 -10 -18 -10 -7 0 -6
4 3 10 19 12 23 12 15 0z m-78 -16 c-3 -3 -12 -4 -19 -1 -8 3 -5 6 6 6 11 1
17 -2 13 -5z m133 -73 c0 -9 9 -12 29 -9 21 3 28 1 24 -9 -3 -8 -11 -12 -18
-9 -7 2 -18 -1 -24 -7 -8 -8 -14 -2 -22 21 -10 30 -29 44 -29 22 0 -5 5 -10
10 -10 6 0 10 -6 10 -13 0 -19 45 -59 55 -50 4 5 5 3 2 -4 -4 -6 -17 -9 -30
-6 -14 3 -18 2 -10 -4 12 -9 21 -38 22 -76 1 -11 6 -15 12 -11 8 4 8 0 0 -15
-8 -14 -8 -21 -1 -21 5 0 10 -7 10 -15 0 -8 -4 -15 -10 -15 -13 0 -7 -34 9
-54 11 -14 11 -16 -3 -16 -19 0 -21 -11 -3 -29 8 -9 8 -12 0 -7 -12 7 -29 -29
-24 -53 2 -13 0 -13 -13 -2 -17 14 -20 9 -16 -23 1 -10 -3 -15 -9 -12 -12 8
-35 -30 -26 -43 3 -5 -4 -7 -15 -4 -12 3 -20 2 -19 -3 4 -24 -2 -36 -16 -30
-8 3 -15 1 -15 -3 0 -5 5 -11 11 -13 7 -2 5 -9 -5 -17 -14 -12 -16 -11 -16 4
0 16 -2 17 -17 3 -16 -14 -20 -14 -40 6 -24 23 -18 52 7 36 12 -8 11 -10 -5
-10 -14 0 -16 -3 -7 -12 8 -8 15 -8 25 0 8 7 17 9 21 5 4 -4 4 1 0 10 -4 12
-2 17 7 15 7 -2 13 3 14 10 0 7 7 17 15 22 13 9 12 11 -6 9 -3 0 -12 8 -19 17
-12 17 -14 17 -39 1 -14 -10 -26 -13 -26 -7 0 5 -7 10 -16 10 -8 0 -12 5 -8
11 3 6 18 9 32 6 32 -6 52 1 52 19 0 8 6 11 18 7 19 -7 17 -4 -13 17 -11 8
-17 10 -13 6 9 -11 -10 -36 -26 -36 -6 0 -4 5 4 10 8 5 10 10 5 10 -6 0 -16
-5 -23 -12 -15 -15 -16 -3 -2 23 6 10 18 19 28 20 12 0 9 3 -8 10 -20 8 -22
12 -10 19 8 5 11 10 6 10 -5 0 -2 8 7 18 10 10 14 22 10 27 -5 4 0 5 10 2 9
-4 17 -2 17 3 0 6 -6 10 -12 11 -10 0 -10 2 0 6 10 4 10 8 1 19 -9 11 -8 14 7
14 14 0 15 3 6 12 -16 16 -15 31 1 22 7 -5 6 0 -3 11 -8 10 -10 16 -3 12 18
-11 26 12 11 30 -9 12 -9 15 0 9 15 -9 16 6 2 20 -16 16 11 36 30 24 10 -7 11
-10 3 -10 -7 0 -13 -6 -13 -14 0 -17 27 -29 35 -15 4 5 3 9 -2 8 -20 -3 -27 2
-13 11 13 8 13 11 -2 27 -14 13 -20 15 -30 5 -7 -7 -16 -12 -21 -12 -5 0 -2 7
7 15 8 8 23 15 33 15 12 0 14 3 6 8 -7 4 -9 13 -4 21 6 9 11 10 15 2 11 -17
29 -13 22 4 -3 9 1 18 9 21 11 5 12 11 4 27 -7 14 -2 12 15 -8 14 -16 25 -36
26 -44z m-95 39 c-6 -10 15 -8 35 5 13 8 13 6 2 -8 -8 -9 -11 -21 -7 -28 4 -6
-5 -3 -21 7 -26 18 -28 18 -21 1 3 -9 2 -17 -2 -17 -5 0 -16 -3 -25 -6 -11 -4
-16 -1 -16 11 0 11 5 15 14 12 11 -4 13 -1 9 10 -4 11 -2 14 5 9 7 -4 12 -1
12 9 0 9 5 13 10 10 6 -4 8 -10 5 -15z m-80 0 c3 -5 1 -10 -4 -10 -6 0 -11 5
-11 10 0 6 2 10 4 10 3 0 8 -4 11 -10z m633 -20 c-1 -31 -11 -39 -24 -18 -4 6
-2 14 4 16 7 2 12 10 12 18 0 8 2 14 4 14 3 0 4 -13 4 -30z m-618 -30 c0 -5
-2 -10 -4 -10 -3 0 -8 5 -11 10 -3 6 -1 10 4 10 6 0 11 -4 11 -10z m640 -15
c-10 -12 -10 -15 0 -15 7 0 10 -8 7 -20 -3 -10 -2 -19 2 -18 33 4 60 -4 55
-16 -3 -8 0 -17 5 -21 6 -3 8 -11 5 -17 -4 -6 0 -14 7 -19 11 -7 11 -9 1 -9
-8 0 -10 -5 -5 -12 11 -18 21 -108 11 -102 -4 3 -8 -5 -8 -18 0 -28 -9 -42
-31 -50 -13 -5 -16 -2 -12 13 3 10 9 19 14 19 5 0 9 10 9 23 0 14 -3 18 -8 10
-11 -18 -47 -9 -49 13 -1 10 -5 32 -9 48 -5 19 -2 31 7 37 10 6 10 9 2 9 -7 0
-13 6 -13 14 0 8 6 17 13 19 6 3 1 6 -13 6 -20 1 -22 3 -10 11 8 5 22 7 31 4
9 -2 19 2 22 10 5 12 -1 13 -31 9 -20 -3 -40 -11 -44 -17 -5 -8 -8 -7 -8 1 0
7 7 16 16 21 13 7 14 11 3 17 -7 5 -14 4 -17 -3 -6 -18 -29 -15 -36 4 -5 13
-4 14 7 5 11 -8 18 -6 33 11 10 12 13 18 7 14 -9 -5 -11 -2 -7 8 3 8 15 17 27
19 12 2 24 5 26 6 2 0 -2 -6 -9 -14z m58 -12 c-2 -9 -10 -19 -18 -21 -13 -4
-13 -3 -2 10 10 13 10 17 0 21 -8 3 -6 6 5 6 12 1 17 -5 15 -16z m-256 -43
c20 -6 58 -25 84 -43 67 -44 79 -86 64 -224 -14 -130 -48 -234 -113 -338 -110
-179 -238 -356 -328 -457 -37 -40 -69 -82 -73 -93 -3 -11 -125 -140 -271 -285
-227 -226 -265 -268 -260 -288 3 -14 -1 -29 -11 -39 -15 -15 -17 -15 -26 0 -5
10 -14 14 -20 11 -7 -4 -8 -2 -4 4 4 6 14 8 23 5 11 -4 14 -3 9 5 -4 7 -3 12
3 12 5 0 9 12 9 28 -2 88 205 597 328 807 22 39 59 104 81 145 56 102 91 161
205 346 54 87 101 173 104 192 6 30 2 65 -23 195 l-5 27 93 0 c52 0 111 -5
131 -10z m4615 -34 c12 -11 -147 -340 -222 -460 -49 -79 -51 -80 -147 -91 -48
-6 -58 -5 -58 8 0 8 21 61 46 118 25 57 70 175 100 262 29 87 56 162 59 167 5
8 214 4 222 -4z m-3657 -6 c0 -5 -2 -10 -4 -10 -3 0 -8 5 -11 10 -3 6 -1 10 4
10 6 0 11 -4 11 -10z m20 -30 c0 -5 -4 -10 -9 -10 -6 0 -13 5 -16 10 -3 6 1
10 9 10 9 0 16 -4 16 -10z m3036 -33 c66 -33 124 -97 124 -136 0 -34 -34 -66
-82 -76 -34 -8 -128 -60 -198 -110 -78 -56 -110 -68 -177 -67 -108 1 -199 68
-218 159 -13 63 48 138 155 193 140 72 299 87 396 37z m-3071 -27 c-3 -5 -12
-10 -18 -10 -7 0 -6 4 3 10 19 12 23 12 15 0z m80 -20 c3 -5 -1 -10 -9 -10 -9
0 -16 5 -16 10 0 6 4 10 9 10 6 0 13 -4 16 -10z m-59 -12 c4 -7 3 -8 -4 -4 -7
4 -12 2 -12 -4 0 -6 -5 -8 -10 -5 -11 7 -4 25 10 25 5 0 12 -5 16 -12z m4615
-35 c121 -60 200 -163 200 -261 0 -92 -112 -380 -176 -452 -12 -14 -42 -56
-67 -95 -53 -82 -73 -102 -118 -115 -29 -8 -35 -6 -61 21 -16 17 -32 43 -35
56 -7 25 38 183 75 268 24 54 75 254 67 262 -12 12 -122 -73 -212 -164 -51
-51 -98 -93 -105 -93 -15 -1 -63 -60 -151 -186 -103 -149 -144 -252 -154 -389
-11 -139 -11 -137 226 -373 188 -186 212 -214 240 -276 28 -62 31 -78 31 -167
0 -63 -6 -111 -15 -133 -42 -101 -185 -263 -306 -348 -91 -64 -148 -91 -283
-138 -134 -46 -196 -50 -340 -25 -163 28 -287 87 -388 185 -66 63 -79 103 -62
185 17 81 101 260 145 310 37 42 43 45 90 45 55 0 83 -11 98 -40 9 -17 4 -37
-24 -103 -19 -45 -40 -104 -46 -132 -14 -62 -15 -144 -3 -156 24 -24 66 -19
141 18 155 76 312 271 343 426 16 79 -1 107 -112 187 -98 70 -223 191 -271
261 -16 24 -43 71 -61 104 -28 55 -31 70 -35 171 -5 127 10 201 59 298 44 86
168 259 242 337 34 36 78 83 98 105 45 49 113 111 159 145 70 52 307 196 380
231 124 59 159 67 280 65 74 -2 94 -6 151 -34z m-4581 -1 c0 -7 4 -11 9 -8 5
3 11 -3 14 -14 3 -11 12 -20 20 -20 8 0 17 -9 20 -21 5 -19 4 -20 -12 -5 -10
9 -23 16 -30 16 -7 0 -10 4 -6 9 3 5 -9 21 -27 35 -29 22 -30 25 -10 23 12 -1
22 -7 22 -15z m-39 -19 c13 -16 12 -17 -3 -4 -17 13 -22 21 -14 21 2 0 10 -8
17 -17z m-736 -23 c3 -5 1 -10 -4 -10 -6 0 -11 5 -11 10 0 6 2 10 4 10 3 0 8
-4 11 -10z m770 -11 c-4 -5 4 -10 17 -10 18 -1 19 -2 5 -6 -11 -3 -16 -11 -13
-21 3 -9 1 -24 -4 -32 -7 -11 -11 -9 -19 12 -5 14 -13 28 -18 30 -4 3 -2 3 5
2 15 -4 16 12 1 22 -8 4 -7 9 2 15 16 9 32 2 24 -12z m-1488 -51 c-3 -8 -6 -5
-6 6 -1 11 2 17 5 13 3 -3 4 -12 1 -19z m1563 -8 c0 -5 -2 -10 -4 -10 -3 0 -8
5 -11 10 -3 6 -1 10 4 10 6 0 11 -4 11 -10z m43 -27 c2 -21 2 -42 -2 -48 -9
-15 -39 -15 -45 0 -2 7 3 12 12 11 10 0 17 4 17 9 0 6 -3 9 -7 8 -5 -2 -8 4
-8 13 0 8 5 12 10 9 14 -9 13 8 -2 23 -9 9 -8 12 4 12 11 0 17 -12 21 -37z
m-76 -3 c-1 -19 -17 -27 -30 -14 -6 7 13 33 25 34 4 0 6 -9 5 -20z m-50 -6
c-3 -3 -12 -4 -19 -1 -8 3 -5 6 6 6 11 1 17 -2 13 -5z m-20 -36 c-3 -8 -6 -5
-6 6 -1 11 2 17 5 13 3 -3 4 -12 1 -19z m38 2 c-5 -14 -2 -20 10 -20 9 0 13 5
10 10 -3 6 -1 10 4 10 6 0 11 -9 11 -20 0 -13 -5 -18 -15 -14 -9 4 -15 0 -15
-9 0 -8 -7 -17 -15 -21 -9 -3 -15 0 -15 9 0 8 6 15 13 15 7 0 8 3 2 8 -15 11
-14 52 2 52 10 0 12 -7 8 -20z m-2421 -15 c-4 -8 -11 -15 -16 -15 -6 0 -5 6 2
15 7 8 14 15 16 15 2 0 1 -7 -2 -15z m912 -12 c-10 -10 -19 5 -10 18 6 11 8
11 12 0 2 -7 1 -15 -2 -18z m-32 2 c-4 -8 -10 -12 -15 -9 -11 6 -2 24 11 24 5
0 7 -7 4 -15z m1636 -20 c0 -8 5 -15 12 -15 9 0 9 -3 0 -12 -17 -17 -15 -28 6
-29 10 0 12 -3 5 -6 -7 -2 -13 -9 -13 -14 0 -4 7 -6 16 -2 12 4 15 2 12 -8 -4
-13 -18 -14 -88 -8 -14 2 -30 6 -37 11 -6 5 -14 5 -18 -2 -3 -5 -1 -10 5 -10
6 0 8 -5 5 -10 -4 -6 -3 -10 2 -9 4 1 15 1 23 0 12 -1 11 -4 -3 -12 -23 -13
-34 -4 -41 34 -3 20 0 30 15 37 14 8 19 8 17 -1 -2 -6 3 -14 11 -17 10 -3 12
0 7 14 -12 31 -16 55 -7 49 5 -2 12 -22 16 -42 4 -21 10 -31 13 -23 3 8 13 23
24 34 10 11 15 22 11 25 -12 9 -14 31 -3 31 6 0 10 -7 10 -15z m-1578 -35 c15
-17 21 -30 13 -30 -16 0 -37 25 -28 34 4 4 0 4 -8 1 -10 -4 -16 0 -16 10 0 22
9 19 39 -15z m1478 -4 c0 -2 -9 -6 -20 -9 -11 -3 -18 -1 -14 4 5 9 34 13 34 5z
m-1501 -20 c9 -11 9 -16 0 -22 -8 -4 -9 -3 -5 4 9 15 -16 16 -31 1 -6 -6 -9
-19 -6 -28 4 -14 3 -14 -6 -1 -9 13 -14 13 -33 2 l-23 -13 23 20 c12 10 22 24
22 29 0 6 10 13 23 15 12 2 23 5 23 6 1 0 7 -5 13 -13z m-94 -16 c-3 -5 -12
-10 -18 -10 -7 0 -6 4 3 10 19 12 23 12 15 0z m135 -10 c0 -5 -8 -18 -18 -28
-10 -10 -17 -23 -15 -29 2 -6 -5 -18 -16 -25 -12 -8 -18 -18 -14 -21 3 -4 15
1 26 10 19 17 20 17 8 -4 -12 -24 -35 -30 -46 -13 -4 6 -14 9 -22 8 -9 -2 -17
5 -18 14 -3 14 0 16 15 8 13 -7 21 -7 25 0 3 5 1 10 -4 10 -6 0 -11 5 -11 11
0 6 7 8 15 5 10 -4 20 3 27 19 6 14 18 25 25 25 8 0 11 5 8 10 -3 6 -1 10 4
10 6 0 11 -4 11 -10z m30 0 c0 -5 -2 -10 -4 -10 -3 0 -8 5 -11 10 -3 6 -1 10
4 10 6 0 11 -4 11 -10z m-193 -35 c0 -8 -4 -12 -9 -9 -5 3 -6 10 -3 15 9 13
12 11 12 -6z m1763 -6 c0 -5 -7 -9 -16 -9 -8 0 -13 -4 -9 -10 3 -5 12 -7 20
-3 9 3 15 -1 15 -9 0 -7 -9 -14 -20 -15 -11 -1 -18 2 -15 8 4 5 2 9 -4 9 -5 0
-11 -4 -13 -10 -2 -6 -8 -6 -18 0 -13 8 -12 10 3 10 9 0 17 4 17 9 0 10 -32 7
-50 -4 -6 -3 -10 -2 -10 2 0 15 38 34 42 21 3 -7 9 -6 19 4 14 16 39 14 39 -3z
m630 7 c0 -2 -7 -9 -15 -16 -13 -11 -14 -10 -9 4 5 14 24 23 24 12z m-2366
-38 c-9 -14 -23 2 -17 18 4 12 8 13 14 3 4 -7 5 -17 3 -21z m1621 -16 c-3 -3
-11 0 -18 7 -9 10 -8 11 6 5 10 -3 15 -9 12 -12z m-1640 -2 c3 -6 -4 -10 -17
-10 -18 0 -20 2 -8 10 19 12 18 12 25 0z m2962 -32 c-3 -7 -5 -2 -5 12 0 14 2
19 5 13 2 -7 2 -19 0 -25z m-537 -2 c84 -13 196 -94 239 -175 18 -32 19 -158
2 -218 -6 -22 -27 -63 -46 -90 -19 -26 -51 -73 -71 -103 -37 -54 -180 -200
-196 -200 -5 0 -49 -29 -99 -64 -108 -78 -251 -156 -339 -186 -50 -17 -88 -22
-162 -22 -82 0 -98 -3 -102 -17 -32 -110 -45 -266 -26 -317 10 -25 13 -26 58
-20 98 12 284 122 453 267 49 42 158 102 144 79 -6 -10 38 -36 70 -42 11 -1
32 -15 48 -30 47 -47 32 -118 -43 -206 -22 -27 -40 -55 -40 -63 0 -14 -56 -70
-63 -63 -1 2 -43 -28 -92 -67 -125 -98 -169 -124 -257 -153 -123 -41 -200 -47
-312 -22 -51 12 -95 34 -182 92 -97 64 -168 150 -205 244 -19 49 -20 69 -16
180 4 85 12 149 27 200 30 106 121 288 203 405 69 98 218 255 287 301 19 13
64 46 99 73 35 27 112 75 170 107 58 31 108 60 111 64 3 4 55 19 115 33 141
34 147 35 165 27 8 -4 35 -10 60 -14z m-2398 -13 c-10 -4 -10 -8 -1 -19 6 -8
15 -11 20 -8 5 3 9 0 9 -5 0 -17 -14 -13 -38 9 -25 24 -28 31 -9 28 6 -2 11 4
9 12 -3 13 -1 13 10 1 11 -11 11 -14 0 -18z m1698 23 c0 -11 -19 -15 -25 -6
-3 5 1 10 9 10 9 0 16 -2 16 -4z m-1780 -56 c0 -5 -5 -10 -11 -10 -5 0 -7 5
-4 10 3 6 8 10 11 10 2 0 4 -4 4 -10z m64 -15 c-4 -8 -11 -12 -16 -9 -6 4 -5
10 3 15 19 12 19 11 13 -6z m34 -35 c-7 -11 -14 -17 -17 -15 -2 3 1 11 7 18 7
8 8 18 4 22 -4 5 -1 5 5 1 10 -5 10 -11 1 -26z m2827 10 c-3 -5 -12 -10 -18
-10 -7 0 -6 4 3 10 19 12 23 12 15 0z m-2890 -28 c-3 -3 -11 0 -18 7 -9 10 -8
11 6 5 10 -3 15 -9 12 -12z m-965 4 c0 -3 -4 -8 -10 -11 -5 -3 -10 -1 -10 4 0
6 5 11 10 11 6 0 10 -2 10 -4z m2785 -16 c3 -5 1 -10 -4 -10 -6 0 -11 5 -11
10 0 6 2 10 4 10 3 0 8 -4 11 -10z m-1778 -15 c0 -8 -7 -15 -15 -15 -12 0 -12
3 -2 15 7 8 13 15 15 15 1 0 2 -7 2 -15z m-114 -12 c-4 -10 -2 -14 5 -9 6 3
13 2 17 -4 3 -5 -1 -10 -10 -10 -29 0 -12 -34 20 -41 31 -7 31 -8 3 -14 -22
-4 -52 30 -45 50 4 8 1 15 -5 15 -7 0 -6 5 2 15 16 20 21 19 13 -2z m-35 -49
c12 7 12 -26 -1 -41 -5 -7 -13 -13 -18 -13 -11 0 -7 23 6 32 6 4 2 8 -8 8 -10
0 -15 5 -12 10 3 6 2 10 -3 10 -6 0 -13 8 -16 17 -5 13 -1 12 18 -6 13 -13 29
-21 34 -17z m110 -27 c-1 -13 -7 -24 -13 -24 -8 0 -9 7 -1 24 14 29 16 29 14
0z m-153 -16 c-3 -12 1 -17 15 -18 11 -1 22 2 25 8 8 13 42 11 51 -2 5 -9 -1
-10 -20 -5 -14 3 -26 3 -25 -1 4 -27 -2 -34 -17 -18 -15 15 -19 13 -45 -16
-16 -18 -29 -27 -29 -20 0 6 8 15 17 18 14 6 12 9 -12 19 -17 7 -24 13 -17 14
6 0 12 7 12 16 0 11 6 14 22 9 17 -6 20 -4 15 9 -4 11 -3 15 4 11 5 -4 7 -14
4 -24z m75 -40 c0 -6 -4 -12 -8 -15 -5 -3 -9 1 -9 9 0 8 4 15 9 15 4 0 8 -4 8
-9z m35 -1 c5 -7 11 -8 19 -1 8 7 12 5 12 -8 0 -23 -29 -24 -44 0 -7 10 -8 19
-3 19 6 0 13 -5 16 -10z m-1577 -31 c1 -28 -1 -29 -12 -13 -10 13 -11 21 -2
30 6 7 11 13 12 14 1 0 1 -14 2 -31z m1512 -6 c0 -12 -2 -12 -16 1 -19 19 -28
21 -21 3 3 -8 -3 -14 -15 -14 -19 -2 -19 -1 -3 16 18 21 55 17 55 -6z m50 17
c0 -5 -5 -10 -11 -10 -5 0 -7 5 -4 10 3 6 8 10 11 10 2 0 4 -4 4 -10z m-1586
-53 c-10 -28 -24 -19 -22 13 2 25 5 28 15 17 8 -7 11 -21 7 -30z m336 14 c-6
-12 -8 -26 -5 -31 3 -6 2 -10 -3 -10 -5 0 -12 -10 -15 -22 -4 -12 -9 -19 -13
-15 -4 4 3 30 16 57 13 27 25 48 28 46 2 -2 -1 -14 -8 -25z m1216 4 c-3 -8 -1
-15 4 -15 6 0 10 7 10 15 0 17 9 19 30 5 13 -8 13 -10 -1 -10 -9 0 -19 -7 -23
-15 -3 -8 -9 -15 -13 -14 -20 3 -24 -2 -12 -17 11 -13 10 -17 -4 -26 -10 -5
-15 -13 -12 -19 4 -5 -4 -9 -16 -9 -20 0 -21 2 -7 13 8 6 18 20 21 30 5 13 1
17 -19 17 -22 0 -23 -2 -14 -20 7 -14 7 -20 0 -20 -5 0 -10 4 -10 9 0 4 -12 7
-27 5 -17 -2 -20 -1 -8 2 11 4 24 12 28 20 4 8 19 14 31 14 17 0 26 7 30 25 4
14 9 25 12 25 3 0 4 -7 0 -15z m-1105 -12 c13 -16 12 -17 -3 -4 -17 13 -22 21
-14 21 2 0 10 -8 17 -17z m947 -23 c-7 -10 -14 -17 -17 -15 -4 4 18 35 25 35
2 0 -1 -9 -8 -20z m42 -5 c-7 -9 -15 -13 -17 -11 -7 7 7 26 19 26 6 0 6 -6 -2
-15z m-1440 -35 c0 -5 -4 -10 -10 -10 -5 0 -10 5 -10 10 0 6 5 10 10 10 6 0
10 -4 10 -10z m520 -14 c0 -3 -4 -8 -10 -11 -5 -3 -10 -1 -10 4 0 6 5 11 10
11 6 0 10 -2 10 -4z m960 -10 c0 -7 -9 -16 -20 -19 -17 -4 -18 -2 -9 14 11 22
29 25 29 5z m-60 -21 c-6 -8 -18 -11 -26 -8 -22 8 -17 18 11 19 20 2 23 -1 15
-11z m-65 -15 c10 -11 13 -20 7 -20 -6 0 -16 9 -22 20 -6 11 -9 20 -7 20 2 0
12 -9 22 -20z m-1010 -18 c-7 -8 -45 10 -40 19 4 5 14 3 25 -3 11 -7 17 -14
15 -16z m1125 8 c0 -5 -5 -10 -11 -10 -5 0 -7 5 -4 10 3 6 8 10 11 10 2 0 4
-4 4 -10z m-1010 -30 c-6 -11 -12 -20 -14 -20 -2 0 -2 9 1 20 3 11 9 20 15 20
5 0 4 -9 -2 -20z m-80 0 c0 -5 -2 -10 -4 -10 -3 0 -8 5 -11 10 -3 6 -1 10 4
10 6 0 11 -4 11 -10z m-49 -9 c-9 -6 -10 -11 -2 -15 6 -4 11 -12 11 -17 0 -6
-4 -7 -10 -4 -5 3 -10 2 -10 -4 0 -5 6 -12 13 -14 6 -3 2 -6 -10 -6 -33 -1
-54 -12 -46 -24 3 -6 1 -7 -5 -3 -6 4 -9 13 -6 21 4 8 10 13 14 10 10 -6 40
22 40 36 0 5 -4 9 -10 9 -5 0 -10 -7 -10 -15 0 -9 -9 -15 -22 -14 -17 1 -19 2
-5 6 9 2 17 11 17 18 0 7 8 16 18 18 29 8 38 7 23 -2z m159 -1 c0 -5 -5 -10
-11 -10 -5 0 -7 5 -4 10 3 6 8 10 11 10 2 0 4 -4 4 -10z m-460 -43 c11 -5 9
-6 -4 -4 -11 1 -21 9 -23 17 -3 10 -2 11 4 4 4 -6 15 -14 23 -17z m435 12 c-4
-6 -13 -8 -21 -5 -7 3 -18 -3 -23 -12 -6 -9 -11 -12 -11 -6 0 5 5 15 12 22 15
15 52 16 43 1z m-355 -19 c0 -5 -2 -10 -4 -10 -3 0 -8 5 -11 10 -3 6 -1 10 4
10 6 0 11 -4 11 -10z m1194 -5 c-4 -8 -8 -15 -10 -15 -2 0 -4 7 -4 15 0 8 4
15 10 15 5 0 7 -7 4 -15z m-1151 -9 c-4 -5 1 -7 11 -3 10 4 15 3 11 -4 -4 -5
-15 -7 -26 -4 -11 4 -19 2 -19 -4 0 -6 10 -11 23 -11 33 0 49 -14 40 -36 -6
-16 -5 -17 9 -6 11 9 18 10 23 2 3 -5 1 -10 -6 -10 -10 0 -10 -3 -1 -12 7 -7
12 -17 12 -22 0 -6 -5 -3 -11 7 -5 9 -19 17 -31 17 -16 0 -19 5 -14 23 4 18 1
23 -16 24 -16 2 -18 -1 -9 -10 6 -6 11 -15 11 -21 0 -5 -9 0 -21 12 -11 12
-24 20 -29 17 -16 -10 -20 28 -5 39 20 14 56 16 48 2z m1192 4 c-3 -5 -11 -10
-16 -10 -6 0 -7 5 -4 10 3 6 11 10 16 10 6 0 7 -4 4 -10z m-1130 -9 c-3 -5 -1
-12 5 -16 5 -3 10 -1 10 5 0 6 5 8 10 5 6 -3 10 -11 10 -16 0 -6 -4 -8 -9 -5
-5 4 -11 2 -13 -3 -1 -5 -12 -3 -23 5 -17 13 -18 16 -5 24 19 12 23 12 15 1z
m229 -8 c4 -10 4 -14 0 -10 -4 4 -16 -1 -27 -10 -20 -18 -17 -5 6 25 12 16 14
15 21 -5z m-369 -2 c-3 -2 -1 -9 5 -15 5 -7 5 -17 -2 -26 -8 -12 -9 -12 -4 2
3 11 -3 23 -16 32 l-21 15 21 -2 c12 0 19 -3 17 -6z m263 -12 c3 -12 2 -12 -6
0 -6 8 -15 10 -22 6 -9 -5 -11 -4 -6 4 10 15 28 10 34 -10z m-305 -15 c-7 -19
-10 -18 -16 5 -3 13 -1 18 9 14 7 -2 10 -11 7 -19z m1267 -14 c9 -16 8 -18 -5
-14 -8 4 -15 12 -15 20 0 20 7 17 20 -6z m2963 -1 c-8 -8 -13 -7 -18 2 -5 8
-4 10 3 5 7 -4 12 -2 12 5 0 7 3 9 7 6 4 -4 2 -12 -4 -18z m-3967 -12 c-1 -6
-5 -17 -9 -24 -6 -9 1 -11 23 -8 17 2 28 0 25 -6 -9 -13 9 -11 24 4 11 10 11
8 2 -11 -7 -12 -10 -26 -7 -30 2 -4 -3 -16 -11 -27 -15 -19 -15 -19 -9 8 4 18
2 33 -8 42 -17 17 -46 10 -46 -12 0 -8 -4 -12 -9 -9 -5 3 -11 -1 -14 -9 -5
-12 -2 -12 18 -3 14 6 21 16 18 22 -4 6 1 5 10 -3 20 -16 22 -32 5 -28 -7 1
-12 -4 -10 -11 2 -10 -4 -11 -20 -6 -13 4 -28 7 -33 7 -11 0 -11 64 -1 74 3 4
6 1 6 -5 0 -7 5 -12 11 -12 5 0 8 4 5 9 -3 5 2 12 11 15 14 6 15 9 4 15 -7 5
-10 14 -7 20 9 14 25 6 22 -12z m111 -6 c1 -14 -3 -17 -17 -14 -15 4 -16 8 -7
19 16 18 23 17 24 -5z m-264 -3 c16 -8 25 -18 22 -27 -4 -11 -3 -11 9 -2 17
14 31 8 46 -19 9 -16 8 -18 -6 -13 -12 4 -15 3 -10 -5 11 -18 2 -15 -71 24
-79 42 -89 49 -50 40 19 -4 26 -3 22 4 -8 13 5 13 38 -2z m4172 2 c3 -5 1 -10
-4 -10 -6 0 -11 5 -11 10 0 6 2 10 4 10 3 0 8 -4 11 -10z m-35 -12 c0 -4 -7
-8 -16 -8 -13 0 -14 -3 -5 -14 8 -10 9 -16 1 -21 -6 -3 -8 -11 -5 -16 4 -5 -1
-9 -9 -9 -8 0 -20 -9 -26 -19 -15 -28 -13 -34 10 -28 11 3 23 1 26 -5 4 -6 10
-5 15 3 5 9 12 10 18 4 16 -16 -2 -35 -37 -39 -18 -2 -40 -14 -50 -26 -13 -16
-21 -20 -26 -12 -4 7 -2 12 3 12 11 0 51 36 51 45 0 3 -15 5 -34 5 -31 0 -34
2 -30 25 3 19 1 23 -11 19 -19 -8 -19 -15 -1 -39 12 -17 11 -20 -11 -32 -31
-16 -36 -16 -27 -2 9 15 -17 30 -41 23 -18 -5 -18 -5 -4 7 9 8 26 29 38 47 21
30 52 48 35 20 -5 -8 3 -6 16 3 14 10 24 23 23 31 -2 8 6 14 17 14 11 0 20 -5
20 -11 0 -7 6 -12 13 -12 9 0 12 9 9 23 -3 18 0 23 17 21 12 -1 21 -5 21 -9z
m-2994 -10 c4 -6 3 -8 -3 -5 -6 4 -8 -3 -5 -19 3 -19 9 -23 24 -18 14 4 18 2
14 -5 -9 -14 -46 -15 -46 -1 0 6 -7 10 -15 10 -18 0 -18 5 -5 31 12 22 25 24
36 7z m5013 -83 c4 -167 64 -326 172 -454 l57 -69 -46 -6 c-110 -16 -153 -35
-211 -95 -52 -52 -104 -135 -141 -221 -22 -51 -29 -60 -45 -53 -18 6 -19 59
-5 185 9 79 37 200 100 433 12 44 35 132 51 195 54 211 65 225 68 85z m-1979
75 c0 -5 -7 -7 -15 -4 -8 4 -15 8 -15 10 0 2 7 4 15 4 8 0 15 -4 15 -10z
m-3922 -23 c8 -10 6 -13 -7 -13 -11 0 -17 6 -14 13 3 7 6 13 8 13 1 0 7 -6 13
-13z m963 -10 c-10 -9 -11 -8 -5 6 3 10 9 15 12 12 3 -3 0 -11 -7 -18z m73 15
c3 -5 -1 -9 -9 -9 -8 0 -12 4 -9 9 3 4 7 8 9 8 2 0 6 -4 9 -8z m2857 -11 c-6
-10 -8 -21 -4 -24 11 -11 -23 -35 -38 -27 -11 7 -11 10 3 15 9 4 19 17 22 31
4 13 11 24 17 24 6 0 6 -6 0 -19z m-4118 -33 c-2 -5 5 -8 16 -8 25 0 36 -15
11 -17 -10 -1 -36 14 -57 33 l-38 34 36 -17 c20 -10 35 -21 32 -25z m1067 6
c0 -8 -5 -12 -10 -9 -6 4 -8 11 -5 16 9 14 15 11 15 -7z m-835 -31 c-6 -20
-20 -37 -35 -43 -19 -8 -20 -9 -4 -6 17 3 22 -1 22 -21 0 -14 -4 -20 -8 -14
-7 12 -40 5 -40 -9 0 -4 -7 -11 -16 -14 -14 -5 -15 -4 -5 8 6 7 14 29 16 47 2
19 9 35 14 37 5 2 7 10 4 19 -4 11 -2 14 5 9 7 -4 15 -1 18 8 3 8 13 14 23 13
14 -1 15 -6 6 -34z m1005 7 c-8 -5 -19 -10 -25 -10 -5 0 -3 5 5 10 8 5 20 10
25 10 6 0 3 -5 -5 -10z m-1131 -9 c7 -5 9 -11 5 -14 -5 -3 -15 1 -22 9 -14 16
-5 18 17 5z m1051 5 c0 -2 -7 -7 -16 -10 -8 -3 -12 -2 -9 4 6 10 25 14 25 6z
m-66 -30 c-7 -18 -20 -21 -29 -6 -3 6 1 10 9 10 9 0 16 5 16 12 0 6 2 9 5 6 3
-3 3 -13 -1 -22z m121 -6 c-3 -5 -12 -10 -18 -10 -7 0 -6 4 3 10 19 12 23 12
15 0z m2680 -20 c-3 -5 -1 -10 5 -10 6 0 8 -5 5 -10 -5 -8 -11 -8 -19 -1 -7 6
-17 7 -22 3 -4 -4 -2 1 5 11 14 18 37 24 26 7z m196 -15 c5 4 8 -5 7 -19 -1
-15 -6 -26 -10 -26 -4 0 -8 -8 -9 -17 0 -10 -3 -13 -5 -6 -3 7 0 21 6 32 9 18
8 21 -10 21 -17 0 -19 2 -8 14 7 8 15 10 16 5 2 -5 8 -7 13 -4z m-206 -25 c3
-5 1 -10 -4 -10 -6 0 -11 5 -11 10 0 6 2 10 4 10 3 0 8 -4 11 -10z m124 -21
c19 -26 20 -29 4 -21 -10 5 -23 7 -30 5 -6 -2 -14 1 -18 6 -3 6 1 11 9 11 10
0 13 6 10 15 -9 24 0 18 25 -16z m-3837 -41 c-6 -6 -15 -8 -19 -4 -4 4 -1 11
7 16 19 12 27 3 12 -12z m3798 -13 c0 -8 -2 -15 -4 -15 -2 0 -6 7 -10 15 -3 8
-1 15 4 15 6 0 10 -7 10 -15z m60 -31 c-9 -26 -9 -38 -2 -43 8 -5 7 -15 -2
-33 -11 -21 -12 -26 -1 -22 7 3 16 1 20 -5 3 -6 3 -11 -2 -11 -4 -1 -27 -4
-50 -9 -33 -6 -40 -5 -36 6 3 7 -1 13 -8 13 -9 1 -8 4 4 11 9 5 21 8 26 4 5
-3 12 -1 16 5 3 5 -1 10 -9 10 -8 0 -18 5 -21 10 -4 6 -1 9 6 8 6 -2 14 3 16
10 6 15 -24 6 -48 -15 -20 -17 -59 -25 -59 -12 0 5 6 9 13 8 28 -3 39 2 33 16
-4 11 2 15 24 15 17 0 33 0 38 1 16 2 31 22 37 50 4 17 9 28 12 25 3 -2 0 -21
-7 -42z m50 25 c0 -5 -7 -9 -15 -9 -8 0 -15 7 -15 15 0 9 6 12 15 9 8 -4 15
-10 15 -15z m-386 -24 c-10 -8 -14 -15 -8 -15 6 0 11 -6 11 -14 0 -8 -6 -12
-14 -9 -7 3 -11 9 -8 13 3 5 0 12 -6 16 -13 8 7 24 30 24 11 0 9 -4 -5 -15z
m-32 -41 c5 -8 1 -13 -12 -17 -11 -3 -23 -1 -26 4 -3 5 0 8 8 7 8 -2 12 6 11
22 -1 14 0 18 4 10 3 -8 10 -20 15 -26z m62 20 c3 -8 2 -12 -4 -9 -6 3 -10 10
-10 16 0 14 7 11 14 -7z m171 -7 c15 -4 14 -5 -7 -6 -21 -1 -28 4 -28 17 0 11
3 13 8 6 4 -7 16 -14 27 -17z m170 13 c-3 -5 -10 -10 -16 -10 -5 0 -9 5 -9 10
0 6 7 10 16 10 8 0 12 -4 9 -10z m955 -5 c0 -8 -7 -15 -15 -15 -9 0 -12 6 -9
15 4 8 10 15 15 15 5 0 9 -7 9 -15z m-3892 -16 c-18 -12 -25 -11 -31 4 -4 10
2 13 20 9 18 -3 21 -7 11 -13z m1492 7 c0 -11 -19 -15 -25 -6 -3 5 1 10 9 10
9 0 16 -2 16 -4z m998 -38 c17 -17 15 -33 -2 -19 -9 7 -17 8 -20 2 -3 -5 -1
-12 4 -14 6 -3 5 -4 -2 -3 -18 4 -23 46 -6 46 8 0 19 -5 26 -12z m-1028 -13
c8 5 11 3 8 -6 -7 -21 -32 -17 -36 6 -2 15 -1 17 6 6 6 -8 15 -10 22 -6z
m-1350 -26 c0 -5 -4 -9 -8 -9 -5 0 -9 7 -9 15 0 8 4 12 9 9 4 -3 8 -9 8 -15z
m1315 0 c4 -12 12 -18 21 -15 8 3 14 -1 14 -10 0 -11 -6 -13 -20 -9 -14 5 -20
2 -20 -10 0 -9 -4 -14 -9 -10 -5 3 -12 1 -16 -5 -8 -13 -35 -13 -35 0 0 6 7
10 15 10 13 0 20 19 16 44 -1 5 6 3 15 -5 16 -13 16 -12 5 9 -7 12 -8 22 -2
22 5 0 13 -9 16 -21z m70 1 c3 -5 -1 -10 -10 -10 -9 0 -13 5 -10 10 3 6 8 10
10 10 2 0 7 -4 10 -10z m-4 -50 c5 0 9 -7 9 -15 0 -12 -3 -12 -18 3 -10 9 -16
24 -13 32 4 12 6 12 9 -2 2 -10 8 -18 13 -18z m784 -13 c1 -15 -1 -25 -4 -21
-6 5 -7 9 -10 37 -1 9 -3 9 -9 0 -5 -8 -12 -8 -25 2 -16 11 -14 13 15 11 27
-1 32 -5 33 -29z m-834 0 c-15 -15 -14 -27 4 -27 8 0 15 5 15 11 0 5 5 7 10 4
15 -9 12 -25 -5 -25 -8 0 -15 -4 -15 -10 0 -5 -5 -10 -11 -10 -5 0 -7 5 -3 12
5 7 2 9 -9 5 -18 -7 -42 17 -33 32 4 6 13 8 21 4 10 -3 15 1 15 12 0 9 5 13
11 9 8 -4 8 -9 0 -17z m-1401 -22 c0 -5 -4 -4 -9 4 -5 8 -14 10 -22 5 -11 -6
-11 -4 0 10 11 13 16 14 22 4 5 -7 9 -17 9 -23z m3814 20 c-4 -8 -8 -15 -10
-15 -2 0 -4 7 -4 15 0 8 4 15 10 15 5 0 7 -7 4 -15z m-974 -14 c0 -10 -6 -21
-12 -24 -8 -3 -13 4 -13 19 0 13 6 24 13 24 6 0 12 -9 12 -19z m-643 -6 c0
-15 -34 -31 -44 -21 -4 3 1 6 9 6 9 0 18 7 22 15 7 19 13 19 13 0z m1613 -15
c0 -5 -4 -10 -10 -10 -5 0 -10 5 -10 10 0 6 5 10 10 10 6 0 10 -4 10 -10z
m-2370 -50 l9 -32 -22 23 c-15 17 -19 28 -12 35 13 15 14 14 25 -26z m840 36
c0 -2 -7 -7 -16 -10 -8 -3 -12 -2 -9 4 6 10 25 14 25 6z m-137 -14 c-5 -4 -12
-13 -14 -20 -3 -8 -7 -7 -15 5 -9 15 -7 18 14 20 14 0 21 -2 15 -5z m67 2 c0
-8 -19 -13 -24 -6 -3 5 1 9 9 9 8 0 15 -2 15 -3z m1590 -20 c0 -18 -8 -18 -26
0 -10 11 -11 15 -1 19 16 6 27 -1 27 -19z m-4840 -5 c0 -11 -4 -18 -10 -14 -5
3 -7 12 -3 20 7 21 13 19 13 -6z m2370 1 c0 -5 -2 -10 -4 -10 -3 0 -8 5 -11
10 -3 6 -1 10 4 10 6 0 11 -4 11 -10z m844 -5 c-4 -10 0 -13 15 -10 22 4 29
-10 9 -18 -10 -3 -10 -7 -1 -19 7 -8 10 -17 7 -21 -9 -8 -35 4 -29 13 3 5 1
11 -4 14 -5 3 -11 -1 -15 -9 -3 -8 -12 -15 -21 -15 -8 0 -15 -4 -15 -9 0 -5 8
-8 18 -6 24 4 37 -6 21 -16 -20 -12 -23 -11 -48 10 -14 12 -18 22 -11 26 8 5
7 11 -2 23 -10 12 -10 14 0 8 6 -4 12 -2 12 4 0 8 6 8 20 0 19 -10 22 -7 19
16 -1 6 21 23 28 24 1 0 0 -7 -3 -15z m82 3 c5 -7 3 -8 -6 -3 -7 4 -15 2 -20
-5 -5 -8 -9 -7 -13 4 -8 19 28 23 39 4z m-838 -33 c-3 -3 -9 2 -12 12 -6 14
-5 15 5 6 7 -7 10 -15 7 -18z m597 -26 c-6 -19 -4 -21 16 -16 28 7 43 0 52
-25 4 -12 2 -18 -7 -18 -8 0 -16 7 -20 15 -3 8 -9 14 -13 13 -4 -1 -18 1 -30
6 -33 11 -29 37 5 45 2 1 0 -9 -3 -20z m-582 -43 c-3 -4 -9 -2 -14 5 -13 22
-11 31 5 17 8 -7 12 -17 9 -22z m2311 1 c-6 -19 -5 -20 9 -9 9 8 18 9 21 4 7
-11 -33 -24 -46 -16 -5 3 -4 12 2 19 7 8 8 20 4 26 -4 8 -3 9 5 5 7 -5 9 -16
5 -29z m-4799 13 c3 -5 -1 -10 -10 -10 -9 0 -13 5 -10 10 3 6 8 10 10 10 2 0
7 -4 10 -10z m3075 -28 c0 -12 3 -12 15 -2 9 8 15 8 15 2 0 -15 -22 -21 -42
-10 -22 11 -23 25 -3 25 8 0 15 -7 15 -15z m1651 -19 c13 -16 12 -17 -3 -4
-17 13 -22 21 -14 21 2 0 10 -8 17 -17z m69 -13 c0 -5 -10 -10 -22 -9 -22 0
-22 1 -3 9 11 5 21 9 23 9 1 1 2 -3 2 -9z m47 -10 c9 -14 10 -21 1 -26 -7 -4
-8 -3 -4 5 4 6 0 14 -8 17 -9 3 -16 10 -16 15 0 15 15 10 27 -11z m-4820 -22
c-3 -8 -6 -5 -6 6 -1 11 2 17 5 13 3 -3 4 -12 1 -19z m4744 -6 c-7 -2 -18 1
-23 6 -8 8 -4 9 13 5 13 -4 18 -8 10 -11z m-951 -1 c0 -5 -5 -11 -12 -13 -7
-3 -9 -12 -4 -23 6 -16 9 -17 16 -5 8 13 10 13 10 -1 0 -9 -7 -19 -15 -23 -8
-3 -14 0 -12 6 1 6 -3 12 -10 15 -7 3 -9 -3 -6 -17 5 -17 11 -20 30 -15 22 5
23 3 17 -22 -4 -16 -14 -38 -22 -50 -8 -13 -11 -23 -8 -23 4 0 2 -9 -4 -20
-14 -27 -29 -25 -24 3 2 12 2 16 -2 10 -10 -21 -40 -15 -40 8 0 15 5 19 19 15
10 -2 26 3 36 13 15 15 16 21 5 35 -8 11 -14 13 -19 7 -4 -7 -12 -5 -23 6 -12
12 -13 18 -4 21 6 2 12 9 12 16 0 14 41 64 53 65 4 1 7 -3 7 -8z m-3739 -81
c-4 -11 -7 -9 -9 8 -2 13 -10 26 -18 29 -8 3 -11 9 -8 14 9 15 42 -34 35 -51z
m4745 48 c4 -6 3 -8 -3 -5 -6 4 -16 -6 -22 -21 -10 -23 -51 -62 -51 -48 0 16
14 36 25 36 17 0 28 30 12 31 -9 0 5 9 30 18 1 1 5 -4 9 -11z m-2199 -68 c-1
-5 7 -16 18 -25 11 -9 14 -15 6 -13 -8 2 -26 19 -40 38 -25 32 -25 33 -4 21
13 -6 22 -16 20 -21z m2063 26 c0 -2 -7 -7 -16 -10 -8 -3 -12 -2 -9 4 6 10 25
14 25 6z m128 -28 c0 -30 -19 -68 -32 -68 -6 0 -5 5 2 12 18 18 15 27 -8 21
-11 -3 -20 -1 -20 5 0 5 8 9 17 8 10 0 18 6 19 14 2 26 4 30 13 30 6 0 10 -10
9 -22z m-2840 -5 c-13 -16 -15 -16 -21 1 -4 10 0 14 13 13 14 -1 16 -4 8 -14z
m-1832 -22 c-4 -6 -13 -11 -19 -11 -8 0 -7 3 2 9 8 5 10 14 6 22 -6 11 -5 11
5 2 7 -6 9 -16 6 -22z m2084 25 c0 -3 -4 -8 -10 -11 -5 -3 -10 -1 -10 4 0 6 5
11 10 11 6 0 10 -2 10 -4z m-280 -24 c0 -4 -9 -8 -19 -8 -15 0 -17 3 -9 13 10
12 28 9 28 -5z m1727 1 c0 -10 -4 -10 -16 -1 -9 7 -18 13 -20 15 -2 1 5 1 16
0 11 0 20 -7 20 -14z m1008 -23 c3 -5 1 -10 -4 -10 -6 0 -11 5 -11 10 0 6 2
10 4 10 3 0 8 -4 11 -10z m-1992 -10 c7 -6 23 -19 37 -31 l25 -20 -33 18 c-33
18 -61 43 -48 43 4 0 12 -5 19 -10z m954 -12 c-3 -8 -6 -5 -6 6 -1 11 2 17 5
13 3 -3 4 -12 1 -19z m1107 10 c-3 -4 -9 -8 -15 -8 -5 0 -9 4 -9 8 0 5 7 9 15
9 8 0 12 -4 9 -9z m-2115 -58 c5 0 12 6 14 13 4 9 6 9 6 0 2 -21 -20 -25 -40
-7 -10 9 -19 24 -19 33 1 10 7 5 16 -11 8 -16 19 -28 23 -28z m955 35 c3 -8 1
-15 -4 -15 -6 0 -10 7 -10 15 0 8 2 15 4 15 2 0 6 -7 10 -15z m1210 -5 c16 0
17 -3 8 -12 -10 -10 -17 -7 -32 10 -11 12 -15 17 -8 12 7 -6 21 -10 32 -10z
m-1098 -6 c-4 -11 -2 -15 8 -11 9 4 13 1 10 -6 -5 -15 -70 -22 -78 -9 -3 5 5
7 18 5 17 -4 25 1 29 16 3 12 8 21 12 21 4 0 4 -7 1 -16z m-1608 -33 c-13 -15
-25 -27 -27 -25 -4 4 39 54 47 54 2 0 -7 -13 -20 -29z m1691 -23 c-6 -10 -16
-18 -23 -18 -16 0 -30 43 -16 48 6 2 7 9 3 15 -3 6 5 2 19 -9 20 -15 24 -23
17 -36z m-1106 22 c-3 -12 -8 -19 -11 -16 -5 6 5 36 12 36 2 0 2 -9 -1 -20z
m107 5 c11 -13 10 -14 -4 -9 -9 3 -16 10 -16 15 0 13 6 11 20 -6z m755 -3 c-3
-3 -11 0 -18 7 -9 10 -8 11 6 5 10 -3 15 -9 12 -12z m1210 8 c3 -5 1 -10 -4
-10 -6 0 -11 5 -11 10 0 6 2 10 4 10 3 0 8 -4 11 -10z m75 -10 c9 -6 11 -10 3
-10 -7 0 -10 -7 -7 -15 4 -8 1 -15 -5 -15 -6 0 -11 10 -11 22 0 17 -3 19 -12
10 -17 -17 -33 -15 -18 3 14 17 29 19 50 5z m-3060 -25 c-7 -9 -15 -13 -18
-10 -3 3 -12 -1 -21 -8 -14 -11 -14 -10 -2 5 7 10 17 15 22 12 5 -3 12 2 15
11 4 9 9 14 12 11 3 -3 -1 -12 -8 -21z m1743 18 c-7 -2 -19 -2 -25 0 -7 3 -2
5 12 5 14 0 19 -2 13 -5z m-876 -18 c0 -8 -4 -12 -9 -9 -5 3 -6 10 -3 15 9 13
12 11 12 -6z m104 -12 c13 -16 12 -17 -3 -4 -17 13 -22 21 -14 21 2 0 10 -8
17 -17z m2009 13 c0 -2 -7 -7 -16 -10 -8 -3 -12 -2 -9 4 6 10 25 14 25 6z
m142 -48 c31 -42 35 -55 25 -67 -9 -11 -9 -13 0 -8 7 5 17 -1 23 -14 15 -27 4
-38 -14 -14 -8 11 -19 16 -30 12 -10 -4 -15 -3 -11 3 3 6 2 10 -3 10 -5 0 -9
7 -9 15 0 21 15 19 19 -2 3 -15 5 -14 10 5 4 16 2 22 -9 22 -9 0 -13 6 -9 15
3 8 0 14 -7 12 -7 -1 -13 5 -13 13 -3 32 -5 34 -14 20 -11 -18 -23 -8 -14 14
9 24 15 20 56 -36z m-2865 27 c0 -8 -4 -15 -9 -15 -5 0 -7 -4 -3 -9 3 -5 0
-13 -7 -17 -7 -4 -10 -4 -6 1 4 4 2 15 -5 23 -8 10 -8 13 -1 9 7 -4 14 0 18 8
7 19 13 19 13 0z m2769 -15 c8 0 13 -4 9 -9 -3 -5 4 -13 16 -16 16 -5 18 -10
9 -18 -10 -9 -14 -9 -17 1 -3 6 -12 12 -20 12 -9 0 -14 3 -10 6 3 4 0 13 -8
21 -8 8 -15 20 -15 26 0 7 5 4 11 -5 5 -10 17 -18 25 -18z m-2742 5 c-4 -8 -1
-15 5 -15 6 0 11 -5 11 -12 0 -8 -6 -7 -16 4 -9 9 -13 21 -10 27 10 16 16 13
10 -4z m760 -14 c9 -7 22 -11 30 -8 10 4 12 0 9 -14 -3 -11 0 -19 6 -19 7 0
10 4 7 9 -4 5 4 6 16 3 19 -5 20 -7 6 -10 -10 -2 -18 -9 -18 -15 -1 -7 -9 -2
-19 11 -11 12 -26 22 -35 22 -9 0 -15 5 -13 12 1 7 -3 12 -10 13 -6 0 -14 3
-18 7 -12 12 23 2 39 -11z m946 9 c0 -5 -5 -10 -11 -10 -5 0 -7 5 -4 10 3 6 8
10 11 10 2 0 4 -4 4 -10z m949 -26 c-8 -22 -8 -37 2 -59 18 -44 19 -54 3 -48
-8 3 -14 0 -14 -6 0 -6 3 -10 8 -10 22 4 42 -2 37 -11 -3 -5 0 -10 7 -10 8 0
23 -7 34 -15 18 -14 17 -14 -8 -5 -21 7 -28 6 -28 -3 0 -8 -4 -7 -10 3 -5 8
-10 11 -10 6 0 -5 7 -17 15 -26 13 -15 13 -17 0 -17 -8 0 -15 5 -15 11 0 8 -2
8 -8 0 -4 -6 -18 -17 -31 -23 -25 -14 -19 -27 14 -33 15 -2 19 2 18 17 -1 11
0 14 3 7 3 -6 10 -10 15 -6 5 3 9 1 9 -4 0 -6 -7 -12 -15 -16 -14 -5 -16 -38
-3 -52 4 -3 4 -13 1 -21 -3 -8 0 -19 8 -25 11 -8 11 -11 1 -15 -9 -3 -10 -9
-2 -17 7 -9 5 -18 -8 -32 -21 -23 -43 -29 -36 -10 3 8 0 17 -6 21 -7 4 -10 -5
-7 -29 4 -36 17 -63 17 -35 0 8 9 15 20 16 21 2 24 -5 14 -31 -3 -9 -10 -14
-14 -11 -5 3 -6 -8 -4 -25 3 -19 1 -30 -7 -30 -8 0 -8 -4 1 -15 10 -12 10 -19
2 -27 -16 -16 -15 -48 1 -48 9 0 8 -3 -2 -9 -7 -5 -11 -13 -8 -17 3 -5 -5 -10
-18 -10 -27 -2 -24 23 3 28 12 2 13 6 5 11 -6 4 -18 0 -26 -8 -17 -16 -42 -21
-32 -6 3 5 0 13 -6 16 -5 4 -7 14 -4 24 19 46 22 67 10 78 -10 10 -16 9 -26
-3 -10 -12 -9 -13 5 -8 9 3 16 1 16 -5 0 -6 -5 -11 -11 -11 -6 0 -9 -7 -5 -15
3 -8 1 -15 -4 -15 -5 0 -7 -9 -5 -20 2 -11 0 -20 -5 -20 -12 0 -20 29 -10 35
5 3 8 16 6 28 -3 12 -5 27 -5 32 -1 6 -6 3 -11 -5 -6 -9 -10 -10 -10 -3 0 6 4
14 8 17 10 6 9 36 -2 55 -12 19 9 37 27 23 8 -7 17 -9 20 -5 4 3 17 -2 28 -13
22 -19 22 -19 10 4 -7 12 -24 25 -39 28 -15 3 -32 15 -38 27 -8 19 -7 22 12
22 16 0 20 -5 16 -20 -5 -18 -4 -19 13 -5 17 14 18 13 12 -2 -3 -10 -2 -18 3
-18 14 0 21 18 10 25 -5 3 -10 16 -10 29 0 12 -5 27 -11 33 -15 15 -3 34 17
26 10 -3 11 -9 5 -17 -6 -7 -6 -17 -1 -26 6 -8 10 -10 10 -5 0 6 4 27 9 48 6
24 5 39 -2 44 -6 4 -7 1 -2 -7 5 -9 4 -11 -3 -6 -17 10 -15 26 4 26 11 0 14 4
8 13 -11 14 -11 67 -1 84 4 7 0 16 -10 22 -11 6 -13 11 -5 11 7 0 23 -10 35
-21 17 -17 18 -20 5 -16 -10 3 -20 2 -23 -3 -4 -6 -1 -10 6 -10 8 0 8 -4 -1
-15 -10 -12 -10 -15 1 -15 8 0 20 9 27 20 10 17 10 25 -3 43 -19 27 -19 47 0
47 13 0 13 3 3 20 -7 11 -18 20 -25 20 -6 0 -15 5 -19 12 -5 8 -2 9 9 5 11 -4
17 -1 17 7 0 8 -11 14 -25 14 -33 0 -41 8 -23 25 11 12 16 12 26 0 15 -16 36
-18 26 -2 -3 6 0 15 7 20 19 11 20 7 8 -27z m-1959 16 c0 -5 -2 -10 -4 -10 -3
0 -8 5 -11 10 -3 6 -1 10 4 10 6 0 11 -4 11 -10z m-2510 -10 c0 -5 -18 -18
-40 -28 -22 -10 -37 -22 -33 -27 5 -4 2 -5 -6 0 -20 12 32 51 62 46 4 0 7 4 7
9 0 6 2 10 5 10 3 0 5 -4 5 -10z m1743 -3 c3 -7 -3 -13 -14 -13 -13 0 -15 3
-7 13 6 7 12 13 13 13 2 0 5 -6 8 -13z m-312 -20 c-10 -9 -11 -8 -5 6 3 10 9
15 12 12 3 -3 0 -11 -7 -18z m2109 8 c0 -8 -4 -15 -10 -15 -5 0 -10 7 -10 15
0 8 5 15 10 15 6 0 10 -7 10 -15z m-2130 1 c0 -2 -8 -10 -17 -17 -16 -13 -17
-12 -4 4 13 16 21 21 21 13z m258 -8 c-2 -7 3 -13 10 -14 22 -3 23 -4 17 -15
-5 -7 -13 -5 -25 6 -10 9 -25 14 -32 10 -7 -3 -4 1 6 9 24 19 27 20 24 4z
m2877 -6 c-3 -3 -11 0 -18 7 -9 10 -8 11 6 5 10 -3 15 -9 12 -12z m-4490 -2
c3 -5 1 -10 -4 -10 -6 0 -11 5 -11 10 0 6 2 10 4 10 3 0 8 -4 11 -10z m2500 1
c3 -5 2 -12 -3 -15 -5 -3 -9 1 -9 9 0 17 3 19 12 6z m2069 -16 c3 -8 1 -15 -4
-15 -6 0 -10 7 -10 15 0 8 2 15 4 15 2 0 6 -7 10 -15z m-2124 1 c0 -2 -8 -10
-17 -17 -16 -13 -17 -12 -4 4 13 16 21 21 21 13z m1033 -33 c-6 -15 -6 -15
-26 -7 -9 3 -13 13 -10 24 4 15 8 17 23 8 10 -7 16 -18 13 -25z m867 22 c0 -8
-4 -15 -10 -15 -5 0 -7 7 -4 15 4 8 8 15 10 15 2 0 4 -7 4 -15z m115 -22 c-3
-20 -8 -39 -12 -42 -3 -3 -3 4 0 17 3 12 2 22 -3 22 -4 0 -11 7 -14 16 -5 14
-4 15 9 4 13 -11 14 -10 9 4 -3 9 -1 16 6 16 7 0 9 -12 5 -37z m97 -6 c-2 -5
-12 0 -22 10 -9 10 -16 21 -13 25 5 10 41 -25 35 -35z m-1805 27 c-3 -3 -12
-4 -19 -1 -8 3 -5 6 6 6 11 1 17 -2 13 -5z m1737 -37 c-19 -11 -18 -41 0 -34
18 7 40 -17 33 -35 -4 -8 -6 -7 -6 4 -1 11 -8 16 -21 13 -26 -5 -33 9 -26 51
6 28 9 32 20 21 12 -10 12 -13 0 -20z m-2924 13 c-20 -13 -33 -13 -25 0 3 6
14 10 23 10 15 0 15 -2 2 -10z m54 2 c2 -4 -4 -8 -15 -8 -10 0 -19 4 -19 8 0
4 6 8 14 8 8 0 17 -4 20 -8z m880 -5 c17 -12 17 -14 3 -20 -10 -4 -16 -2 -14
6 1 7 -4 11 -10 10 -7 -2 -13 2 -13 7 0 14 13 13 34 -3z m-1215 -11 c9 -11 9
-16 -1 -22 -7 -4 -10 -4 -6 1 4 4 3 14 -3 22 -6 7 -9 13 -6 13 2 0 10 -6 16
-14z m3077 -12 c-4 -9 -9 -15 -11 -12 -3 3 -3 13 1 22 4 9 9 15 11 12 3 -3 3
-13 -1 -22z m-3109 10 c-3 -3 -12 -4 -19 -1 -8 3 -5 6 6 6 11 1 17 -2 13 -5z
m313 -3 c0 -5 -14 -11 -30 -13 -33 -5 -29 7 5 15 11 3 21 5 23 6 1 0 2 -3 2
-8z m990 -25 c0 -5 -6 -4 -13 3 -10 8 -17 7 -25 -1 -7 -7 -12 -8 -12 -4 0 5 8
15 17 22 18 12 32 3 33 -20z m1770 31 c0 -2 -10 -12 -22 -23 l-23 -19 19 23
c18 21 26 27 26 19z m225 -17 c18 -20 18 -21 0 -14 -14 6 -16 4 -10 -6 5 -8 4
-11 -3 -6 -6 4 -8 14 -5 23 4 11 3 14 -5 9 -7 -4 -12 -2 -12 3 0 17 15 13 35
-9z m-1920 0 c-3 -5 -12 -10 -18 -10 -7 0 -6 4 3 10 19 12 23 12 15 0z m140
-10 c3 -5 1 -10 -4 -10 -6 0 -11 5 -11 10 0 6 2 10 4 10 3 0 8 -4 11 -10z
m550 0 c-3 -5 -12 -10 -18 -10 -7 0 -6 4 3 10 19 12 23 12 15 0z m145 0 c0 -5
-5 -10 -11 -10 -5 0 -7 5 -4 10 3 6 8 10 11 10 2 0 4 -4 4 -10z m-1960 -21 c0
-5 -8 -9 -17 -8 -11 0 -13 3 -5 6 6 2 9 10 6 15 -4 7 -2 8 4 4 7 -4 12 -11 12
-17z m36 6 c-1 -8 -7 -20 -13 -26 -9 -9 -11 -7 -8 7 2 11 4 22 4 27 1 4 5 7
10 7 5 0 8 -7 7 -15z m1151 -19 c14 -6 14 -4 2 10 -13 16 -11 17 16 10 41 -10
41 -11 9 -43 -27 -27 -64 -40 -64 -22 0 5 9 9 20 9 25 0 25 5 0 32 -10 12 -16
26 -12 32 4 7 8 5 10 -6 2 -9 10 -19 19 -22z m2036 2 c-2 -5 1 -8 8 -8 7 0 9
-3 5 -7 -4 -5 -14 1 -22 11 -18 25 -18 41 0 24 8 -7 12 -16 9 -20z m-2117 -3
c-3 -9 -11 -13 -16 -10 -8 5 -7 11 1 21 14 18 24 11 15 -11z m37 13 c7 -22 -5
-48 -22 -49 -12 0 -11 -2 4 -9 15 -6 16 -9 4 -9 -22 -1 -28 7 -22 30 3 10 13
19 22 20 10 0 11 2 4 6 -7 2 -13 9 -13 14 0 14 18 11 23 -3z m1961 3 c4 -5 -3
-7 -14 -4 -23 6 -26 13 -6 13 8 0 17 -4 20 -9z m71 -1 c-3 -5 -12 -10 -18 -10
-7 0 -6 4 3 10 19 12 23 12 15 0z m-1255 -16 c0 -2 -7 -4 -15 -4 -8 0 -15 4
-15 10 0 5 7 7 15 4 8 -4 15 -8 15 -10z m1215 -4 c3 -5 1 -10 -4 -10 -6 0 -11
5 -11 10 0 6 2 10 4 10 3 0 8 -4 11 -10z m-1855 -42 c0 -4 -4 -8 -10 -8 -5 0
-10 7 -10 15 0 8 -5 15 -11 15 -5 0 -7 5 -3 12 5 7 11 5 21 -7 7 -11 13 -22
13 -27z m-1415 5 c-8 -15 -11 -31 -8 -36 3 -5 -4 -4 -15 2 -25 13 -21 32 11
47 12 7 23 12 24 13 1 0 -4 -11 -12 -26z m2065 21 c0 -4 -8 -13 -17 -21 -10
-8 -13 -12 -6 -9 6 4 14 2 18 -4 7 -11 -22 -26 -32 -17 -10 11 7 57 22 57 8 0
15 -3 15 -6z m-1967 -11 c-7 -2 -19 -2 -25 0 -7 3 -2 5 12 5 14 0 19 -2 13 -5z
m1284 -20 c-8 -7 -37 9 -31 19 3 5 12 4 20 -3 8 -6 13 -14 11 -16z m-1713 8
c3 -5 -3 -11 -15 -14 -16 -4 -18 -3 -8 9 13 16 16 17 23 5z m3610 -34 c3 -11
11 -17 18 -14 9 3 14 -3 15 -14 2 -16 -2 -17 -18 -9 -10 6 -19 15 -19 21 0 6
-5 7 -10 4 -6 -4 -10 -3 -9 2 4 21 -2 33 -17 33 -8 0 -12 4 -9 10 8 14 43 -9
49 -33z m-3469 13 c10 -11 16 -20 13 -20 -3 0 -13 9 -23 20 -10 11 -16 20 -13
20 3 0 13 -9 23 -20z m228 -22 c-2 -5 -10 -8 -16 -8 -7 0 -6 4 3 10 14 9 7 15
-14 11 -5 -1 -3 5 4 14 13 16 15 16 21 -2 3 -10 5 -21 2 -25z m2898 19 c-10
-9 -11 -8 -5 6 3 10 9 15 12 12 3 -3 0 -11 -7 -18z m624 13 c8 -13 -15 -13
-35 0 -12 8 -11 10 7 10 12 0 25 -4 28 -10z m-3649 -9 c-4 -5 0 -11 6 -14 7
-3 3 -4 -9 -4 -17 1 -19 4 -11 14 12 15 22 18 14 4z m159 0 c3 -5 1 -12 -5
-16 -5 -3 -10 1 -10 9 0 18 6 21 15 7z m3305 -21 c0 -6 -9 -2 -20 7 -11 10
-20 19 -20 21 0 1 9 -2 20 -8 11 -6 20 -15 20 -20z m23 15 c-3 -9 -8 -14 -10
-11 -3 3 -2 9 2 15 9 16 15 13 8 -4z m-3666 -17 c2 -17 0 -19 -7 -8 -5 8 -6
18 -4 22 8 12 10 10 11 -14z m1628 12 c3 -5 -1 -10 -9 -10 -8 0 -18 5 -21 10
-3 6 1 10 9 10 8 0 18 -4 21 -10z m-1695 -35 c0 -5 -5 -3 -10 5 -5 8 -10 20
-10 25 0 6 5 3 10 -5 5 -8 10 -19 10 -25z m3320 25 c0 -5 -7 -7 -15 -4 -8 4
-15 8 -15 10 0 2 7 4 15 4 8 0 15 -4 15 -10z m524 -5 c10 -8 23 -12 28 -9 4 3
25 0 45 -7 33 -10 35 -13 19 -24 -9 -7 -25 -12 -34 -10 -9 2 -20 4 -24 4 -5 1
-8 6 -8 12 0 6 9 8 23 4 17 -5 19 -4 7 4 -8 6 -22 9 -30 6 -8 -2 -26 4 -40 15
-14 11 -20 20 -15 19 6 0 19 -6 29 -14z m-3868 -32 c-10 -11 -57 7 -50 19 6 9
9 9 12 0 2 -7 11 -12 20 -11 11 0 12 2 4 6 -6 2 -9 9 -6 15 4 7 10 4 16 -6 6
-10 7 -20 4 -23z m314 22 c-7 -8 -17 -12 -22 -9 -6 4 -5 10 3 15 22 14 33 10
19 -6z m2106 -5 c0 -14 -3 -15 -18 -6 -10 6 -18 13 -18 16 0 3 8 6 18 7 11 1
18 -5 18 -17z m1401 4 c-3 -3 -12 -4 -19 -1 -8 3 -5 6 6 6 11 1 17 -2 13 -5z
m-3950 -48 c-5 -12 -16 -15 -43 -12 -20 3 -39 8 -43 12 -3 4 2 4 12 1 9 -4 17
-2 17 5 0 6 6 5 17 -3 14 -12 15 -12 9 0 -5 8 -3 16 5 22 18 11 33 -5 26 -25z
m78 16 c-3 -3 -11 0 -18 7 -9 10 -8 11 6 5 10 -3 15 -9 12 -12z m295 8 c0 -9
-14 -14 -32 -11 -13 2 -9 -17 5 -22 12 -5 -5 -9 -53 -11 -14 -1 -24 -6 -23
-13 2 -8 -4 -10 -14 -6 -9 4 -14 2 -10 -3 3 -5 -3 -10 -13 -10 -18 0 -18 2 3
21 12 11 24 19 27 18 3 0 13 3 23 8 11 6 17 6 17 0 0 -6 11 1 25 14 25 26 45
32 45 15z m3197 -12 c-3 -8 -6 -5 -6 6 -1 11 2 17 5 13 3 -3 4 -12 1 -19z
m369 -25 c11 -2 34 -4 53 -5 19 -1 29 -4 22 -6 -23 -8 -10 -20 19 -18 18 1 32
-4 35 -12 3 -8 12 -12 20 -9 8 4 12 1 9 -6 -2 -7 -20 -11 -42 -10 -20 1 -45 2
-54 2 -10 1 -18 6 -18 12 0 5 5 7 12 3 7 -4 8 -3 4 4 -4 6 -19 9 -34 6 -22 -4
-32 1 -55 31 -15 19 -25 40 -21 46 4 8 11 3 19 -11 7 -13 21 -25 31 -27z m4
31 c0 -2 -7 -4 -15 -4 -8 0 -15 4 -15 10 0 5 7 7 15 4 8 -4 15 -8 15 -10z
m-530 -4 c0 -5 -2 -10 -4 -10 -3 0 -8 5 -11 10 -3 6 -1 10 4 10 6 0 11 -4 11
-10z m-3018 -18 c-7 -2 -12 -10 -12 -17 0 -8 -4 -16 -10 -20 -5 -3 -5 7 1 25
7 18 15 27 22 23 8 -5 8 -8 -1 -11z m2149 11 c4 -42 3 -70 -3 -66 -5 2 -8 -1
-8 -6 0 -6 6 -11 13 -12 10 0 10 -2 0 -6 -16 -6 -17 -29 -3 -36 6 -3 5 -4 -2
-3 -8 1 -14 21 -16 47 -2 24 -9 47 -15 51 -9 6 -9 8 1 8 6 0 12 7 12 15 0 15
19 22 21 8z m-4401 -7 c0 -3 -4 -8 -10 -11 -5 -3 -10 -1 -10 4 0 6 5 11 10 11
6 0 10 -2 10 -4z m-46 -20 c22 -11 24 -15 11 -20 -26 -10 -34 -7 -45 14 -13
23 -3 25 34 6z m1826 -17 c-14 -4 -19 -7 -12 -8 6 -1 12 -6 12 -12 0 -5 -4 -8
-9 -5 -5 4 -12 0 -15 -6 -2 -7 -4 -4 -3 7 4 31 16 45 35 38 14 -6 13 -8 -8
-14z m87 6 c0 -8 -4 -12 -9 -9 -5 3 -6 10 -3 15 9 13 12 11 12 -6z m4183 1 c0
-7 -9 -16 -19 -19 -14 -3 -18 -1 -14 9 3 10 0 12 -10 8 -8 -3 -18 -1 -22 5 -4
7 7 11 29 11 24 0 36 -5 36 -14z m-4000 -12 c0 -8 -19 -13 -24 -6 -3 5 1 9 9
9 8 0 15 -2 15 -3z m155 -4 c3 -5 1 -10 -4 -10 -6 0 -11 5 -11 10 0 6 2 10 4
10 3 0 8 -4 11 -10z m3795 -10 c0 -5 -8 -10 -17 -10 -15 0 -16 2 -3 10 19 12
20 12 20 0z m-6087 -17 c-6 -16 -5 -16 10 -4 16 12 22 8 18 -12 -1 -5 3 -6 9
-2 5 3 10 -1 10 -10 0 -12 5 -15 16 -11 12 4 15 2 10 -9 -3 -8 -1 -15 3 -15
23 0 16 28 -13 52 -17 15 -26 28 -19 28 6 0 24 -13 39 -29 15 -17 32 -27 37
-24 6 3 7 1 3 -6 -4 -6 -13 -8 -19 -4 -7 3 -4 -3 6 -14 9 -11 17 -24 17 -30 0
-16 36 -22 51 -9 9 8 10 8 5 -1 -3 -6 -2 -14 4 -18 5 -3 10 -12 10 -18 0 -8
-4 -7 -9 2 -5 8 -19 16 -32 18 -19 3 -20 1 -8 -14 9 -11 3 -9 -19 6 -20 14
-31 29 -28 37 3 8 2 13 -2 12 -15 -5 -71 25 -65 35 3 5 1 7 -5 3 -5 -3 -12 -3
-15 1 -2 5 -2 2 -1 -4 2 -7 -2 -13 -8 -13 -7 0 -6 -5 2 -15 9 -10 16 -12 20
-5 4 6 13 5 26 -5 18 -13 18 -14 -6 -9 -20 5 -22 3 -10 -5 8 -6 11 -11 6 -11
-6 0 -20 10 -33 22 -13 12 -26 18 -30 15 -3 -4 6 -18 20 -31 15 -14 27 -28 27
-32 0 -14 -58 48 -63 66 -3 14 0 16 17 12 19 -5 19 -4 7 11 -9 12 -10 17 -2
17 7 0 9 5 6 10 -3 6 -3 15 0 20 10 16 15 11 8 -7z m2052 -13 c3 -5 1 -10 -4
-10 -6 0 -11 5 -11 10 0 6 2 10 4 10 3 0 8 -4 11 -10z m3840 0 c3 -5 1 -10 -4
-10 -6 0 -11 5 -11 10 0 6 2 10 4 10 3 0 8 -4 11 -10z m-3774 -27 c-8 -15 -10
-15 -11 -2 0 17 10 32 18 25 2 -3 -1 -13 -7 -23z m45 16 c4 -8 9 -7 16 2 8 11
9 11 5 -1 -5 -21 -33 -24 -40 -5 -7 17 8 21 19 4z m-136 -3 c0 -3 -4 -8 -10
-11 -5 -3 -10 -1 -10 4 0 6 5 11 10 11 6 0 10 -2 10 -4z m84 -38 c7 -5 5 -8
-6 -8 -13 0 -18 7 -17 28 1 21 2 22 6 7 3 -11 10 -23 17 -27z m-53 5 c-8 -15
-10 -15 -11 -2 0 17 10 32 18 25 2 -3 -1 -13 -7 -23z m-23 -18 c1 -18 -2 -23
-13 -19 -18 7 -20 30 -2 37 6 3 12 6 12 6 0 1 2 -10 3 -24z m-1883 -5 c3 -5 1
-10 -4 -10 -6 0 -11 5 -11 10 0 6 2 10 4 10 3 0 8 -4 11 -10z m1855 -16 c6 -6
3 -10 -9 -11 -11 -1 -24 4 -30 11 -8 10 -6 12 9 11 11 -1 25 -6 30 -11z
m-1924 -3 c-3 -4 2 -17 10 -27 9 -10 13 -14 10 -7 -4 8 3 7 22 -2 15 -8 38
-16 50 -18 12 -2 25 -6 28 -10 12 -12 36 -8 28 5 -4 7 -3 8 5 4 9 -6 9 -11 0
-22 -9 -11 -8 -14 7 -15 11 -1 22 -1 27 0 4 0 7 -4 7 -10 0 -6 -9 -8 -20 -4
-12 4 -20 2 -20 -5 0 -6 5 -8 10 -5 6 3 10 -1 10 -10 0 -9 -4 -13 -10 -10 -12
7 -12 3 -4 -19 3 -9 11 -16 16 -16 6 0 8 6 5 13 -3 8 -1 20 5 28 8 11 9 10 4
-3 -6 -21 4 -23 24 -5 12 10 12 9 2 -4 -12 -16 -7 -29 10 -29 5 0 6 5 3 10 -7
12 -3 12 19 4 9 -3 16 -10 16 -16 0 -5 -4 -7 -9 -3 -5 3 -13 0 -17 -6 -4 -8
-3 -9 4 -5 7 4 12 1 12 -6 0 -9 3 -9 8 -2 9 14 42 26 42 15 0 -5 -7 -12 -16
-15 -8 -3 -12 -11 -8 -18 5 -8 12 -5 23 9 14 17 19 18 30 6 7 -8 22 -12 32
-10 11 3 19 0 19 -7 0 -9 20 -13 63 -14 34 0 104 -2 154 -4 68 -2 93 0 93 9 0
7 -6 10 -14 7 -7 -3 -21 2 -30 11 -15 15 -16 15 -17 -2 0 -16 -1 -16 -9 2 -7
17 -9 17 -9 3 -1 -25 -16 -22 -35 7 -14 21 -14 24 -1 19 8 -4 15 -1 15 6 0 10
3 10 15 0 8 -7 22 -10 30 -6 9 3 15 0 15 -9 0 -15 4 -17 53 -18 15 -1 27 -5
27 -10 0 -4 12 -7 28 -5 25 3 27 6 25 46 -1 31 2 42 13 42 8 0 14 5 14 10 0 6
5 10 11 10 5 0 7 -6 3 -12 -6 -10 -3 -9 8 0 13 10 22 11 37 2 17 -8 20 -8 15
4 -5 12 2 15 30 12 27 -2 36 2 37 13 1 13 2 13 6 -1 2 -10 10 -15 19 -11 7 3
12 8 10 12 -2 3 24 7 59 8 35 2 67 -2 70 -7 4 -6 -1 -7 -12 -3 -15 6 -16 5 -3
-9 11 -12 18 -13 29 -5 9 8 10 12 2 15 -6 2 -11 11 -11 19 0 13 3 13 16 3 12
-11 15 -11 12 0 -2 8 6 15 17 17 11 1 14 0 8 -3 -17 -7 -17 -25 0 -18 8 3 13
-3 13 -16 0 -13 -7 -20 -19 -20 -10 0 -30 -11 -45 -25 -24 -22 -48 -31 -75
-26 -5 1 -6 -3 -2 -8 3 -6 12 -8 20 -4 24 9 17 -14 -11 -36 -20 -16 -22 -21
-10 -21 9 0 19 6 22 14 3 9 12 12 21 9 11 -4 14 -2 9 5 -4 7 -2 12 6 12 11 0
10 2 0 9 -11 6 -10 10 3 15 14 5 16 2 12 -21 -5 -25 -4 -26 8 -9 8 10 19 15
25 11 7 -4 14 2 17 14 4 15 13 21 34 21 16 0 29 -5 29 -11 0 -5 -5 -7 -12 -3
-6 4 -8 3 -5 -3 7 -11 56 -6 58 6 3 23 8 44 14 49 3 4 3 -8 0 -26 -5 -31 -4
-32 24 -30 16 1 27 6 25 10 -3 4 9 8 25 8 19 0 31 5 31 13 0 12 29 15 87 8 7
0 2 -12 -12 -27 -20 -22 -27 -24 -39 -14 -13 10 -15 8 -11 -9 2 -12 0 -19 -6
-16 -5 4 -9 13 -9 21 0 8 -8 14 -17 13 -11 0 -13 -3 -5 -6 19 -8 14 -22 -7
-18 -11 2 -36 -5 -55 -15 -23 -11 -36 -14 -36 -6 0 6 -5 4 -10 -4 -9 -13 -10
-13 -10 0 0 11 -3 10 -11 -4 -9 -15 -13 -16 -20 -5 -7 11 -9 11 -9 1 0 -7 -4
-11 -9 -7 -6 3 -14 -2 -19 -11 -6 -10 -12 -13 -16 -6 -3 5 -15 8 -27 5 -16 -4
-17 -8 -7 -14 10 -7 10 -9 -2 -10 -8 -1 -22 -2 -30 -3 -8 0 -14 -7 -12 -14 2
-10 -2 -10 -18 0 -16 10 -22 10 -32 -1 -11 -11 -9 -12 11 -6 17 5 21 4 16 -5
-5 -8 -20 -10 -44 -6 -20 4 -44 7 -53 8 -10 1 -18 5 -18 9 0 4 -9 5 -20 2 -11
-3 -17 -9 -14 -14 3 -5 0 -9 -6 -9 -6 0 -13 6 -16 14 -3 9 -12 12 -22 9 -13
-6 -13 -8 4 -14 18 -7 18 -8 -1 -9 -11 -1 -29 -4 -40 -6 -42 -9 -91 -7 -114 5
-17 10 -26 10 -35 1 -8 -8 -7 -10 5 -5 9 3 23 0 30 -8 8 -8 21 -16 29 -20 10
-3 7 -6 -7 -6 -13 -1 -23 4 -23 9 0 6 -10 10 -22 9 -22 0 -22 -1 -3 -9 14 -6
15 -9 4 -9 -8 -1 -20 4 -25 9 -6 6 -35 12 -65 14 -30 2 -59 5 -65 5 -12 1 -28
38 -24 56 1 6 -5 4 -12 -4 -10 -11 -10 -14 0 -18 6 -3 12 -13 12 -24 0 -20 18
-27 90 -32 35 -3 30 -4 -20 -5 -63 -2 -66 -1 -83 28 -16 26 -21 28 -38 19 -28
-14 -59 -20 -59 -9 0 4 -13 13 -30 19 -16 5 -30 15 -30 21 0 7 6 8 19 0 28
-15 41 -12 42 8 0 14 2 14 7 2 7 -15 32 -26 32 -14 0 9 -28 34 -38 34 -6 0
-13 -8 -17 -17 -6 -17 -8 -17 -24 2 -9 11 -21 21 -26 22 -6 0 -18 3 -27 5 -9
1 -17 -1 -17 -7 0 -5 8 -9 17 -7 14 2 14 1 3 -7 -14 -9 -44 0 -88 27 -12 7
-26 14 -30 15 -4 1 -7 5 -6 8 4 11 -31 5 -39 -6 -5 -6 -8 -3 -8 6 0 11 -9 15
-36 14 -24 -2 -34 2 -30 10 3 9 -3 12 -19 10 -15 -1 -22 2 -18 8 4 7 0 8 -12
3 -21 -7 -58 21 -48 37 3 5 2 7 -3 4 -6 -3 -16 -2 -23 2 -10 6 -9 10 3 14 8 3
22 0 30 -8 8 -8 20 -15 26 -15 22 0 4 24 -35 46 -48 27 -53 38 -23 58 25 18
32 20 24 7z m1418 -7 c9 -24 2 -26 -12 -4 -7 11 -8 20 -3 20 5 0 12 -7 15 -16z
m442 4 c4 -7 4 -10 -1 -6 -4 4 -14 3 -22 -4 -10 -8 -17 -8 -26 1 -9 10 -8 11
4 6 10 -4 20 -2 24 4 8 14 12 14 21 -1z m-465 -15 c7 -7 6 -12 -5 -16 -10 -4
-13 -1 -10 8 4 10 -1 13 -20 9 -14 -2 -26 0 -26 4 0 12 47 9 61 -5z m387 0
c-8 -10 -6 -13 8 -14 13 0 15 -2 5 -6 -8 -3 -20 2 -28 13 -9 12 -13 13 -13 4
0 -7 -3 -11 -6 -7 -10 10 4 23 25 23 15 0 17 -3 9 -13z m-463 -11 c-3 -3 -11
0 -18 7 -9 10 -8 11 6 5 10 -3 15 -9 12 -12z m-38 -14 c-3 -8 -6 -5 -6 6 -1
11 2 17 5 13 3 -3 4 -12 1 -19z m411 -25 c-7 -15 -18 -28 -25 -28 -6 0 -15 -3
-19 -7 -4 -5 -12 -8 -18 -8 -5 0 -1 7 10 15 16 12 17 16 5 24 -8 5 -20 7 -27
4 -6 -2 -15 0 -18 5 -3 5 6 8 20 6 14 -1 28 4 30 11 3 8 12 11 20 8 8 -3 14 1
14 8 0 9 3 10 11 2 8 -8 7 -19 -3 -40z m-349 16 c-29 -23 -49 -24 -49 -4 0 8
5 15 11 15 5 0 7 -6 3 -12 -4 -7 1 -6 10 3 9 9 24 16 33 16 11 0 8 -5 -8 -18z
m3061 1 c0 -11 -4 -20 -10 -20 -5 0 -10 9 -10 20 0 11 5 20 10 20 6 0 10 -9
10 -20z m-2650 6 c0 -2 -7 -7 -16 -10 -8 -3 -12 -2 -9 4 6 10 25 14 25 6z
m-470 -38 c0 -6 -7 -5 -15 2 -12 10 -15 10 -15 0 0 -8 -2 -11 -5 -8 -3 3 -3
13 1 22 5 13 9 14 20 5 8 -6 14 -16 14 -21z m-1060 -3 c0 6 5 2 11 -7 5 -10
16 -15 24 -12 8 4 15 1 15 -6 0 -6 -5 -8 -12 -4 -8 5 -9 1 -5 -12 6 -15 3 -14
-13 5 -12 14 -20 18 -20 10 0 -11 -2 -11 -10 1 -5 8 -9 24 -9 35 l0 20 9 -20
c5 -11 9 -15 10 -10z m1010 15 c0 -5 -2 -10 -4 -10 -3 0 -8 5 -11 10 -3 6 -1
10 4 10 6 0 11 -4 11 -10z m530 6 c0 -2 -7 -7 -16 -10 -8 -3 -12 -2 -9 4 6 10
25 14 25 6z m-175 -16 c-3 -5 -12 -7 -20 -3 -21 7 -19 13 6 13 11 0 18 -4 14
-10z m-1181 -26 c3 -8 2 -12 -4 -9 -6 3 -10 10 -10 16 0 14 7 11 14 -7z m930
1 c-4 -8 -1 -15 7 -15 7 0 9 -3 6 -6 -8 -8 -37 14 -37 27 0 5 7 9 15 9 9 0 12
-6 9 -15z m210 3 c-3 -4 -11 -5 -19 -1 -21 7 -19 12 4 10 11 0 18 -5 15 -9z
m2866 -8 c-6 -11 -13 -20 -16 -20 -2 0 0 9 6 20 6 11 13 20 16 20 2 0 0 -9 -6
-20z m-2828 -1 c-15 -5 -21 -14 -16 -21 5 -10 4 -10 -7 0 -12 11 -12 14 1 22
8 5 22 9 30 9 8 0 5 -4 -8 -10z m93 -9 c-3 -5 -14 -10 -23 -9 -14 0 -13 2 3 9
27 11 27 11 20 0z m-1295 -20 c0 -12 37 -14 42 -2 2 5 14 5 28 1 l25 -7 -24
-1 c-24 -1 -24 -2 -6 -15 18 -13 16 -13 -21 -7 -22 4 -46 11 -52 15 -15 9 -16
26 -2 26 6 0 10 -4 10 -10z m880 -10 c0 -5 -5 -10 -11 -10 -5 0 -7 5 -4 10 3
6 8 10 11 10 2 0 4 -4 4 -10z m-910 -10 c0 -5 -2 -10 -4 -10 -3 0 -8 5 -11 10
-3 6 -1 10 4 10 6 0 11 -4 11 -10z m149 -8 c1 15 4 16 27 5 l27 -12 -24 -6
c-22 -6 -10 -13 18 -10 6 1 14 -3 18 -9 8 -14 -18 -13 -52 2 -33 15 -44 28
-36 42 4 5 10 1 14 -10 7 -16 8 -17 8 -2z m658 12 c-3 -3 -12 -4 -19 -1 -8 3
-5 6 6 6 11 1 17 -2 13 -5z m-447 -19 c0 -8 -7 -15 -15 -15 -8 0 -15 5 -15 11
0 5 5 7 10 4 6 -3 10 -1 10 4 0 6 2 11 5 11 3 0 5 -7 5 -15z m45 5 c-3 -5 -12
-10 -18 -10 -7 0 -6 4 3 10 19 12 23 12 15 0z m3645 0 c0 -5 -2 -10 -4 -10 -3
0 -8 5 -11 10 -3 6 -1 10 4 10 6 0 11 -4 11 -10z m909 -9 c19 -19 19 -19 0
-24 -10 -3 -17 -1 -14 3 3 5 1 11 -5 15 -10 6 -14 25 -5 25 3 0 14 -9 24 -19z
m-829 -21 c0 -5 -2 -10 -4 -10 -3 0 -8 5 -11 10 -3 6 -1 10 4 10 6 0 11 -4 11
-10z m860 -31 c10 -18 10 -19 -8 -10 -14 7 -24 6 -39 -4 -19 -14 -21 -13 -16
4 3 12 11 17 19 14 8 -3 14 0 14 6 0 18 19 12 30 -10z m36 12 c25 21 29 -1 5
-24 -13 -12 -21 -17 -17 -10 3 6 2 14 -4 18 -5 3 -10 12 -9 18 0 8 2 8 6 -1 4
-10 8 -10 19 -1z m-5185 -18 c13 -16 12 -17 -3 -4 -10 7 -18 15 -18 17 0 8 8
3 21 -13z m4425 -49 c-15 -14 -16 -14 -16 1 0 10 -5 13 -12 9 -7 -4 -8 -3 -4
4 4 6 13 9 21 5 9 -3 15 1 16 8 0 10 2 11 6 2 2 -7 -3 -20 -11 -29z m709 15
c-4 -5 -1 -9 6 -9 8 0 9 -3 0 -13 -6 -8 -8 -17 -4 -20 3 -4 1 -7 -5 -7 -6 0
-9 -6 -6 -13 3 -8 -1 -14 -8 -14 -8 0 -14 7 -14 16 0 9 -4 26 -8 39 -5 16 -3
22 8 22 9 0 16 5 16 11 0 5 5 7 10 4 6 -4 8 -11 5 -16z m75 11 c0 -5 -5 -10
-11 -10 -5 0 -7 5 -4 10 3 6 8 10 11 10 2 0 4 -4 4 -10z m-5092 -25 c-3 -3
-13 -2 -22 1 -14 5 -15 9 -4 15 13 8 36 -6 26 -16z m50 13 c17 -17 15 -38 -3
-38 -9 0 -12 6 -8 15 3 9 2 15 -3 14 -18 -3 -25 1 -19 11 8 13 18 13 33 -2z
m4330 -19 c2 -5 8 -7 13 -3 5 3 9 -2 9 -10 0 -9 8 -16 18 -17 10 0 12 -3 5 -6
-7 -2 -13 -17 -14 -31 -1 -26 -1 -26 -7 -4 -4 13 -11 24 -17 25 -5 1 -9 5 -7
10 1 4 -3 7 -9 7 -6 0 -9 6 -6 14 4 10 0 12 -14 9 -10 -3 -16 -9 -13 -14 3 -5
-2 -6 -10 -3 -19 7 -21 25 -3 22 6 -2 11 3 9 10 -2 10 4 11 20 6 13 -3 25 -11
26 -15z m695 8 c4 3 7 -1 7 -10 0 -9 -6 -19 -12 -23 -7 -4 -10 -3 -5 1 4 5 -1
18 -10 29 -14 15 -14 18 -2 8 9 -6 19 -9 22 -5z m-150 -51 c7 3 3 -3 -9 -13
-20 -18 -20 -18 13 -34 31 -15 33 -15 38 2 4 11 11 19 16 19 6 0 1 -13 -10
-28 -13 -19 -17 -33 -10 -43 7 -11 9 -11 9 4 0 9 4 17 8 17 5 0 9 -7 9 -15 0
-8 -4 -15 -8 -15 -5 0 -6 -8 -2 -17 3 -10 -6 -4 -21 12 -14 17 -24 35 -22 42
3 6 -1 14 -9 17 -7 2 -16 -2 -19 -10 -3 -8 -1 -14 5 -14 6 0 8 -4 4 -9 -3 -6
3 -14 12 -20 15 -8 16 -13 6 -29 -10 -17 -9 -19 6 -15 11 3 22 -1 26 -9 5 -7
5 -10 1 -6 -11 9 -35 -14 -29 -29 5 -13 -14 -12 -36 1 -9 6 -12 5 -7 -2 3 -6
1 -14 -5 -18 -8 -4 -9 -3 -5 4 4 7 3 12 -2 12 -5 0 -9 6 -9 14 0 8 5 12 11 10
14 -5 49 43 41 56 -4 6 -15 4 -30 -6 -22 -14 -24 -14 -30 6 -3 11 -11 18 -16
15 -5 -3 -6 1 -3 9 8 22 21 20 29 -4 8 -24 25 -27 25 -4 0 8 -4 13 -8 10 -5
-3 -9 1 -9 9 0 8 4 15 9 15 5 0 6 5 2 11 -5 8 -9 8 -14 -1 -5 -8 -10 -9 -14
-1 -10 16 15 50 33 44 13 -5 14 -3 4 8 -7 7 -13 18 -13 24 0 5 5 2 11 -8 6 -9
16 -15 22 -11z m-461 7 c-6 -2 -10 -9 -6 -14 3 -5 0 -9 -5 -9 -12 0 -14 13 -4
23 3 4 11 7 17 6 6 0 5 -3 -2 -6z m588 -8 c0 -8 -2 -15 -4 -15 -2 0 -6 7 -10
15 -3 8 -1 15 4 15 6 0 10 -7 10 -15z m64 1 c-3 -9 -12 -12 -22 -8 -14 5 -15
3 -6 -9 9 -11 9 -17 -1 -26 -9 -8 -16 -9 -20 -3 -11 17 -20 11 -21 -15 -1 -14
2 -22 8 -19 6 4 8 -2 6 -11 -1 -10 -9 -20 -16 -23 -9 -3 -11 6 -7 32 3 27 1
35 -8 29 -7 -4 -7 0 2 10 7 9 22 17 33 17 10 0 16 5 13 10 -5 8 14 21 42 29 1
1 0 -5 -3 -13z m-626 -26 c-13 -21 -28 -27 -28 -10 0 5 8 14 18 19 23 14 24
14 10 -9z m271 -21 c7 10 9 10 14 -2 8 -22 -31 -61 -48 -47 -17 14 -16 50 1
43 8 -3 11 3 8 19 -4 22 -4 22 6 -2 8 -18 13 -21 19 -11z m84 12 c-3 -12 -11
-17 -19 -14 -16 6 -20 -32 -4 -42 12 -7 4 -25 -11 -25 -6 0 -7 6 -3 13 6 8 3
8 -9 -1 -9 -8 -22 -12 -29 -9 -8 3 -5 6 6 6 15 1 16 4 7 15 -7 9 -8 17 -2 20
5 3 12 0 14 -6 3 -7 6 1 6 17 1 24 -1 27 -10 15 -9 -13 -10 -13 -6 0 2 8 17
18 33 21 16 4 30 7 31 8 0 0 -1 -8 -4 -18z m-486 -20 c30 -16 42 -13 19 4 -11
8 -15 15 -9 15 6 0 16 -7 24 -16 10 -13 10 -17 -1 -24 -12 -7 -11 -10 3 -16 9
-3 14 -10 11 -15 -2 -5 -13 -3 -24 3 -10 7 -16 16 -14 20 3 5 -3 11 -13 15
-24 9 -44 29 -36 37 4 3 9 2 12 -2 3 -5 16 -14 28 -21z m93 19 c0 -5 -4 -10
-9 -10 -6 0 -13 5 -16 10 -3 6 1 10 9 10 9 0 16 -4 16 -10z m140 -31 c0 -14
33 -48 42 -43 4 3 8 14 8 25 0 24 18 25 36 2 11 -14 13 -15 14 -3 0 10 5 8 15
-7 8 -12 12 -29 9 -38 -6 -14 -10 -11 -26 14 -21 33 -38 40 -38 16 0 -8 7 -15
15 -15 23 0 18 -20 -7 -29 -15 -5 -18 -10 -9 -15 7 -5 17 -1 25 9 11 15 12 13
10 -14 -1 -17 2 -29 6 -26 5 3 12 1 15 -5 8 -13 43 -3 64 18 13 13 13 14 -7 8
-30 -10 -27 5 5 28 14 11 23 15 20 9 -4 -6 0 -14 9 -17 8 -3 12 -10 9 -16 -9
-14 8 -13 23 2 9 9 12 9 12 -1 0 -9 5 -8 16 3 8 9 21 16 27 16 7 0 6 -4 -3
-10 -17 -11 -19 -25 -8 -60 l8 -25 -19 24 c-17 22 -19 23 -28 6 -7 -12 -12
-14 -18 -6 -5 9 -10 9 -21 0 -10 -8 -14 -8 -14 0 0 6 5 11 10 11 6 0 10 5 10
10 0 16 -28 12 -38 -6 -11 -20 -169 -26 -177 -7 -2 7 -12 13 -20 13 -10 0 -13
5 -9 12 5 7 3 8 -5 4 -7 -5 -10 -14 -7 -22 4 -11 2 -12 -14 -1 -11 6 -20 15
-20 19 0 5 -9 8 -19 8 -11 0 -23 9 -26 20 -5 14 -14 20 -28 18 -13 -2 -22 2
-21 10 3 40 4 41 41 36 21 -3 42 -9 47 -14 6 -6 15 -10 20 -10 6 0 5 5 -2 12
-15 15 -16 32 -2 23 6 -3 10 1 10 10 0 11 -5 15 -14 12 -8 -3 -17 1 -20 9 -7
17 5 18 28 1 17 -13 19 -49 3 -74 -6 -9 -3 -11 7 -7 10 4 16 1 16 -7 1 -9 6
-7 15 5 8 11 18 17 21 13 4 -4 1 -13 -6 -22 -7 -9 -10 -18 -6 -22 3 -3 6 -1 6
6 0 8 7 11 15 7 10 -3 15 1 15 13 0 21 -22 33 -44 25 -9 -4 -13 3 -13 20 0 14
4 26 9 26 6 0 0 9 -13 20 l-24 20 33 -16 c17 -8 32 -20 32 -25z m51 8 c-7 -7
-14 -8 -21 -1 -6 6 -2 10 12 11 16 2 18 -1 9 -10z m-171 -8 c0 -5 5 -7 10 -4
6 3 10 1 10 -5 0 -7 -7 -9 -16 -6 -9 3 -20 6 -25 6 -5 0 -9 5 -9 10 0 6 7 10
15 10 8 0 15 -5 15 -11z m365 -9 c3 -5 1 -10 -4 -10 -6 0 -11 5 -11 10 0 6 2
10 4 10 3 0 8 -4 11 -10z m275 0 c0 -5 -2 -10 -4 -10 -3 0 -8 5 -11 10 -3 6
-1 10 4 10 6 0 11 -4 11 -10z m-90 -25 c0 -8 -4 -15 -10 -15 -5 0 -7 7 -4 15
4 8 8 15 10 15 2 0 4 -7 4 -15z m57 -7 c-3 -8 -6 -5 -6 6 -1 11 2 17 5 13 3
-3 4 -12 1 -19z m-227 -19 c0 -5 -4 -8 -9 -4 -5 3 -12 1 -16 -5 -4 -6 -11 -7
-17 -4 -6 4 -5 10 3 15 19 12 39 11 39 -2z m160 -23 c0 -3 -4 -8 -10 -11 -5
-3 -10 -1 -10 4 0 6 5 11 10 11 6 0 10 -2 10 -4z m-282 -42 c-4 -3 -12 5 -18
18 -12 22 -12 22 6 6 10 -10 15 -20 12 -24z"/>
<path d="M2674 3458 l-19 -23 23 19 c21 18 27 26 19 26 -2 0 -12 -10 -23 -22z"/>
<path d="M3670 3850 c0 -5 5 -10 11 -10 5 0 7 5 4 10 -3 6 -8 10 -11 10 -2 0
-4 -4 -4 -10z"/>
<path d="M3530 3841 c0 -10 30 -24 37 -17 3 2 -5 9 -16 16 -12 6 -21 7 -21 1z"/>
<path d="M3771 3841 c-8 -5 -19 -8 -25 -7 -6 2 -8 1 -3 -1 4 -3 5 -8 2 -13 -3
-4 3 -11 12 -14 10 -4 14 -4 10 0 -4 4 0 16 10 26 18 20 16 23 -6 9z"/>
<path d="M3681 3821 c-8 -5 -9 -11 -3 -15 5 -3 12 1 16 9 6 17 6 18 -13 6z"/>
<path d="M3583 3813 c4 -3 1 -13 -6 -22 -11 -14 -10 -14 5 -2 16 12 16 31 1
31 -4 0 -3 -3 0 -7z"/>
<path d="M3691 3791 c-12 -8 -12 -12 2 -25 9 -9 18 -12 21 -7 4 5 0 12 -6 14
-10 4 -9 8 2 16 18 13 1 14 -19 2z"/>
<path d="M3734 3755 c-1 -16 2 -22 12 -18 17 6 18 17 2 31 -10 8 -13 4 -14
-13z"/>
<path d="M3392 3650 c7 -10 14 -18 15 -16 6 6 -9 36 -18 36 -5 0 -4 -9 3 -20z"/>
<path d="M3343 3581 c0 -11 5 -18 9 -15 4 3 5 11 1 19 -7 21 -12 19 -10 -4z"/>
<path d="M3436 3544 c-9 -24 -2 -26 12 -4 7 11 8 20 3 20 -5 0 -12 -7 -15 -16z"/>
<path d="M3347 3520 c3 -11 9 -22 13 -25 5 -3 6 4 3 15 -3 11 -9 22 -13 25 -5
3 -6 -4 -3 -15z"/>
<path d="M3320 3489 c0 -5 5 -7 10 -4 6 3 10 8 10 11 0 2 -4 4 -10 4 -5 0 -10
-5 -10 -11z"/>
<path d="M3276 3442 c-2 -4 11 -12 30 -18 19 -6 34 -10 34 -8 0 9 -59 33 -64
26z"/>
<path d="M3390 3426 c0 -2 7 -6 15 -10 8 -3 15 -1 15 4 0 6 -7 10 -15 10 -8 0
-15 -2 -15 -4z"/>
<path d="M3315 3390 c10 -11 20 -20 23 -20 3 0 -3 9 -13 20 -10 11 -20 20 -23
20 -3 0 3 -9 13 -20z"/>
<path d="M3355 3379 c-11 -16 -1 -19 13 -3 7 8 8 14 3 14 -5 0 -13 -5 -16 -11z"/>
<path d="M3390 3381 c0 -6 4 -13 10 -16 6 -3 7 1 4 9 -7 18 -14 21 -14 7z"/>
<path d="M3370 3350 c0 -5 7 -10 16 -10 8 0 12 5 9 10 -3 6 -10 10 -16 10 -5
0 -9 -4 -9 -10z"/>
<path d="M3340 3340 c0 -5 -8 -10 -17 -10 -15 0 -14 -2 3 -14 14 -11 21 -11
26 -3 6 9 11 8 18 -3 7 -11 10 -12 10 -2 0 13 -23 42 -34 42 -3 0 -6 -4 -6
-10z"/>
<path d="M3985 3520 c-3 -5 -1 -10 4 -10 6 0 11 5 11 10 0 6 -2 10 -4 10 -3 0
-8 -4 -11 -10z"/>
<path d="M3937 3473 c-12 -12 -7 -22 8 -17 8 4 15 10 15 15 0 11 -14 12 -23 2z"/>
<path d="M3985 3470 c3 -5 8 -10 11 -10 2 0 4 5 4 10 0 6 -5 10 -11 10 -5 0
-7 -4 -4 -10z"/>
<path d="M4795 3150 c-3 -5 -1 -10 4 -10 6 0 11 5 11 10 0 6 -2 10 -4 10 -3 0
-8 -4 -11 -10z"/>
<path d="M5311 2621 c-7 -12 -16 -19 -21 -16 -5 3 -12 -1 -17 -8 -4 -8 -19
-20 -32 -27 -35 -18 -80 -60 -212 -195 -94 -96 -113 -121 -98 -123 42 -7 152
74 287 212 72 75 132 141 132 146 0 6 5 8 10 5 6 -3 10 -2 10 4 0 15 -18 23
-26 10 -5 -8 -9 -8 -14 1 -6 9 -11 7 -19 -9z"/>
<path d="M2900 2755 c0 -8 7 -15 16 -15 14 0 14 3 4 15 -7 8 -14 15 -16 15 -2
0 -4 -7 -4 -15z"/>
<path d="M1540 2406 c0 -2 7 -7 16 -10 8 -3 12 -2 9 4 -6 10 -25 14 -25 6z"/>
<path d="M5627 2268 c-4 -12 -4 -24 -2 -27 3 -2 5 1 5 8 0 7 5 9 10 6 6 -3 10
1 10 9 0 25 -17 27 -23 4z"/>
<path d="M5561 2244 c0 -11 3 -14 6 -6 3 7 2 16 -1 19 -3 4 -6 -2 -5 -13z"/>
<path d="M5540 2216 c0 -9 30 -14 35 -6 4 6 -3 10 -14 10 -12 0 -21 -2 -21 -4z"/>
<path d="M5610 1980 c0 -5 5 -10 10 -10 6 0 10 5 10 10 0 6 -4 10 -10 10 -5 0
-10 -4 -10 -10z"/>
<path d="M5491 1344 c0 -11 3 -14 6 -6 3 7 2 16 -1 19 -3 4 -6 -2 -5 -13z"/>
<path d="M6418 959 c-10 -5 -18 -15 -18 -21 0 -6 3 -8 7 -5 3 4 12 2 20 -4 10
-9 13 -6 11 15 -1 14 -3 26 -3 26 0 0 -8 -5 -17 -11z"/>
<path d="M6340 800 c0 -11 -4 -20 -10 -20 -5 0 -10 -4 -10 -10 0 -5 7 -7 16
-3 9 3 20 0 24 -8 16 -25 22 -1 9 30 -16 35 -29 40 -29 11z"/>
<path d="M6379 713 c-12 -15 -12 -16 5 -10 12 5 23 3 28 -5 5 -8 8 -9 8 -2 0
6 -6 17 -14 23 -10 9 -17 7 -27 -6z"/>
<path d="M6380 674 c0 -8 5 -12 10 -9 6 4 8 11 5 16 -9 14 -15 11 -15 -7z"/>
<path d="M1010 779 c0 -14 28 -42 38 -37 4 2 -3 13 -15 25 -13 12 -23 18 -23
12z"/>
<path d="M1076 732 c-3 -5 7 -23 23 -41 30 -33 47 -41 37 -16 -4 13 -1 12 22
-2 l27 -17 -22 22 c-12 12 -27 22 -32 22 -6 0 -19 9 -30 21 -10 11 -21 16 -25
11z"/>
<path d="M1155 704 c9 -9 18 -14 21 -11 9 9 -6 27 -22 27 -13 0 -13 -2 1 -16z"/>
<path d="M1055 670 c3 -5 11 -10 16 -10 6 0 7 5 4 10 -3 6 -11 10 -16 10 -6 0
-7 -4 -4 -10z"/>
<path d="M1945 660 c-3 -6 1 -7 9 -4 18 7 21 14 7 14 -6 0 -13 -4 -16 -10z"/>
<path d="M2064 658 c-7 -10 36 -9 61 2 15 6 10 8 -18 7 -21 -1 -41 -5 -43 -9z"/>
<path d="M2486 661 c-3 -5 -16 -7 -29 -5 -12 2 -15 1 -7 -2 8 -4 18 -11 21
-17 4 -5 12 0 18 12 11 20 8 31 -3 12z"/>
<path d="M1863 652 c-25 -4 -31 -30 -10 -51 10 -11 10 -13 0 -7 -8 5 -13 1
-13 -9 0 -9 -4 -13 -10 -10 -5 3 -10 2 -10 -3 0 -5 -10 -7 -23 -5 -14 3 -29
-3 -42 -17 l-19 -21 28 10 c18 8 33 8 46 1 12 -7 21 -7 25 0 4 6 14 4 28 -5
15 -9 27 -11 37 -5 13 8 12 10 -2 10 -10 0 -18 4 -18 8 0 5 13 7 28 6 21 -1
28 3 29 18 1 14 -3 18 -17 13 -12 -4 -27 3 -44 22 -14 15 -23 29 -21 31 3 3
12 -5 22 -17 22 -27 96 -40 87 -16 -4 8 -10 13 -14 10 -4 -3 -10 4 -13 14 -5
19 -36 29 -74 23z m47 -32 c0 -5 -4 -10 -10 -10 -5 0 -10 5 -10 10 0 6 5 10
10 10 6 0 10 -4 10 -10z"/>
<path d="M2013 635 c-17 -18 -16 -22 3 -29 8 -3 12 -2 9 4 -3 6 6 11 22 11 24
2 25 2 5 6 -12 2 -20 9 -17 14 9 14 -9 10 -22 -6z"/>
<path d="M2226 627 c3 -10 9 -15 12 -12 3 3 0 11 -7 18 -10 9 -11 8 -5 -6z"/>
<path d="M2121 564 c0 -11 3 -14 6 -6 3 7 2 16 -1 19 -3 4 -6 -2 -5 -13z"/>
<path d="M2020 560 c0 -5 5 -10 10 -10 6 0 10 5 10 10 0 6 -4 10 -10 10 -5 0
-10 -4 -10 -10z"/>
<path d="M1646 543 c-6 -14 -5 -15 5 -6 7 7 10 15 7 18 -3 3 -9 -2 -12 -12z"/>
<path d="M2065 550 c4 -6 11 -8 16 -5 14 9 11 15 -7 15 -8 0 -12 -5 -9 -10z"/>
<path d="M1515 540 c-3 -5 1 -10 10 -10 9 0 13 5 10 10 -3 6 -8 10 -10 10 -2
0 -7 -4 -10 -10z"/>
<path d="M1460 520 c0 -12 28 -21 35 -11 2 5 -4 11 -15 14 -11 3 -20 2 -20 -3z"/>
<path d="M1608 523 c7 -3 16 -2 19 1 4 3 -2 6 -13 5 -11 0 -14 -3 -6 -6z"/>
<path d="M2055 520 c-3 -5 -1 -10 4 -10 6 0 11 5 11 10 0 6 -2 10 -4 10 -3 0
-8 -4 -11 -10z"/>
<path d="M1686 512 c-3 -5 1 -9 9 -9 8 0 15 4 15 9 0 4 -4 8 -9 8 -6 0 -12 -4
-15 -8z"/>
<path d="M1838 513 c6 -2 18 -2 25 0 6 3 1 5 -13 5 -14 0 -19 -2 -12 -5z"/>
<path d="M2692 739 c2 -7 10 -15 17 -17 8 -3 12 1 9 9 -2 7 -10 15 -17 17 -8
3 -12 -1 -9 -9z"/>
<path d="M5940 291 c0 -5 9 -7 20 -4 11 3 20 1 20 -5 0 -6 8 -9 18 -7 28 6 28
7 2 15 -35 11 -60 12 -60 1z"/>
<path d="M5132 1285 c-7 -8 -9 -15 -4 -15 5 0 15 7 22 15 16 19 -1 19 -18 0z"/>
<path d="M5275 1281 c5 -16 3 -26 -6 -32 -11 -7 -11 -9 -1 -9 8 0 10 -5 6 -12
-5 -9 -2 -9 9 1 21 17 22 38 1 59 -15 15 -16 14 -9 -7z"/>
<path d="M5206 1258 c5 -8 0 -9 -14 -6 -13 4 -20 2 -16 -4 3 -5 15 -7 26 -5
14 4 18 2 14 -9 -3 -8 -1 -14 4 -14 6 0 10 4 10 9 0 18 -12 41 -22 41 -5 0 -6
-5 -2 -12z"/>
<path d="M5135 1219 c-4 -6 -5 -12 -2 -15 2 -3 7 2 10 11 7 17 1 20 -8 4z"/>
<path d="M5310 1220 c8 -5 20 -10 25 -10 6 0 3 5 -5 10 -8 5 -19 10 -25 10 -5
0 -3 -5 5 -10z"/>
<path d="M4980 1208 c0 -4 8 -8 18 -8 14 0 15 -2 2 -9 -8 -6 -28 -7 -45 -5
-22 4 -26 3 -15 -4 8 -6 18 -8 24 -5 5 4 7 -1 3 -10 -4 -11 -2 -14 7 -11 8 3
17 1 21 -5 3 -6 14 -11 23 -11 13 1 11 4 -7 14 l-24 13 24 17 c13 9 18 16 11
16 -7 0 -11 4 -8 8 2 4 -4 8 -15 8 -10 0 -19 -4 -19 -8z"/>
<path d="M5070 1209 c0 -5 5 -7 10 -4 6 3 10 8 10 11 0 2 -4 4 -10 4 -5 0 -10
-5 -10 -11z"/>
<path d="M5086 1178 c3 -5 10 -6 15 -3 13 9 11 12 -6 12 -8 0 -12 -4 -9 -9z"/>
<path d="M4838 1168 c5 -5 16 -8 23 -6 8 3 3 7 -10 11 -17 4 -21 3 -13 -5z"/>
<path d="M5052 1175 c4 -5 4 -13 -1 -19 -6 -7 -1 -11 15 -11 30 0 31 11 2 26
-13 6 -20 8 -16 4z"/>
<path d="M10620 103 c-9 -10 -29 -28 -45 -41 l-30 -23 45 7 c25 3 46 8 48 9 2
2 2 17 0 35 -3 29 -4 30 -18 13z"/>
</g>
</svg>
