<?xml version="1.0" standalone="no"?>
<!DOCTYPE svg PUBLIC "-//W3C//DTD SVG 20010904//EN"
 "http://www.w3.org/TR/2001/REC-SVG-20010904/DTD/svg10.dtd">
<svg version="1.0" xmlns="http://www.w3.org/2000/svg"
 width="960.000000pt" height="960.000000pt" viewBox="0 0 960.000000 960.000000"
 preserveAspectRatio="xMidYMid meet">

<g transform="translate(0.000000,960.000000) scale(0.100000,-0.100000)"
fill="#000000" stroke="none">
<path d="M2 7298 c1 -1267 3 -2276 5 -2243 21 413 110 875 247 1280 133 397
355 843 584 1175 461 667 1065 1199 1772 1559 617 314 1238 482 1945 524 28 2
-986 4 -2252 5 l-2303 2 2 -2302z"/>
<path d="M5045 9593 c431 -26 829 -98 1193 -214 1065 -339 1950 -1004 2563
-1924 460 -691 741 -1530 792 -2365 2 -30 4 972 5 2228 l2 2282 -2302 -2
c-1267 -1 -2280 -3 -2253 -5z"/>
<path d="M4673 8640 c-402 -33 -790 -219 -1080 -519 -83 -84 -94 -101 -70
-101 22 0 95 -44 135 -82 51 -49 101 -124 147 -223 21 -44 39 -82 41 -84 2 -2
19 10 39 28 20 17 84 63 142 102 61 41 132 100 167 138 159 172 195 196 291
193 24 -1 62 10 100 27 85 40 175 60 298 66 99 5 107 4 131 -17 14 -13 27 -34
29 -48 4 -24 7 -25 100 -31 81 -4 102 -9 135 -32 27 -17 42 -36 47 -57 5 -23
18 -36 53 -55 26 -13 61 -33 77 -44 41 -28 76 -26 106 5 20 22 25 39 30 123
11 154 53 228 161 280 l60 29 -83 51 c-227 141 -486 227 -754 251 -113 11
-170 10 -302 0z"/>
<path d="M5885 8275 c-167 -36 -214 -88 -222 -245 -6 -116 -7 -120 -54 -173
-38 -44 -44 -47 -91 -47 -40 0 -62 7 -100 31 -83 53 -156 78 -233 80 l-70 1
45 10 c78 16 95 23 98 41 3 12 -8 22 -35 33 -48 21 -238 15 -357 -10 -43 -10
-80 -16 -82 -14 -2 2 38 32 89 66 50 34 87 62 82 63 -6 1 -44 0 -85 0 -119 -3
-247 -39 -321 -92 -27 -19 -30 -19 -45 -4 -17 17 -35 16 -90 -5 -15 -6 -77
-62 -137 -125 -78 -82 -138 -134 -210 -182 -56 -37 -128 -92 -160 -122 l-57
-54 -31 29 c-17 16 -51 71 -75 123 -104 218 -180 281 -340 281 -272 0 -467
-188 -528 -509 -42 -221 -15 -314 142 -475 115 -119 297 -205 447 -212 l70 -3
20 -78 c34 -129 104 -261 182 -344 l35 -37 -69 -4 c-127 -7 -266 -100 -293
-197 -39 -139 26 -369 126 -445 51 -39 83 -52 169 -65 33 -5 87 -19 120 -31
48 -18 75 -21 132 -18 67 5 77 8 130 49 32 24 77 56 99 72 53 35 93 95 106
161 15 71 1 105 -74 177 l-58 56 123 -39 c67 -22 133 -42 147 -46 20 -6 41
-40 105 -163 112 -218 182 -310 300 -394 119 -85 230 -119 380 -117 232 3 432
106 503 260 34 74 42 197 17 273 -9 28 -15 52 -13 53 10 8 100 37 102 35 2 -2
11 -31 21 -64 46 -160 139 -248 276 -261 35 -4 91 -18 123 -31 71 -29 186 -41
238 -24 34 11 144 87 221 152 43 37 72 87 86 150 21 94 -6 129 -243 313 -173
135 -228 169 -300 191 -38 11 -40 14 -52 74 -7 35 -22 79 -34 98 -19 33 -19
37 -5 86 18 60 20 255 4 342 -6 32 -24 92 -40 132 -16 41 -29 77 -29 81 0 5
23 14 51 21 138 36 291 145 368 263 61 94 85 195 78 338 -3 71 -12 134 -23
165 -34 99 -118 202 -209 257 -123 75 -321 106 -470 73z m328 -45 c87 -27 150
-62 206 -114 58 -54 86 -100 117 -192 25 -75 26 -102 1 -73 -15 19 -73 60
-111 79 -19 10 -59 15 -115 15 -73 0 -94 -4 -141 -27 -30 -15 -75 -45 -100
-67 -49 -43 -58 -39 -59 22 -2 54 -33 181 -56 226 -13 25 -44 67 -68 93 l-45
47 36 6 c20 4 44 8 52 10 42 11 220 -5 283 -25z m-1415 -200 c-35 -28 -96 -76
-137 -107 -304 -231 -469 -431 -501 -606 -25 -140 13 -217 109 -217 27 0 53
-5 56 -11 4 -6 18 6 33 28 189 285 422 562 485 578 94 24 427 -100 624 -233
51 -34 96 -62 102 -62 5 0 30 19 55 41 32 29 46 49 46 67 0 25 -63 117 -150
217 l-43 50 49 5 c58 7 85 20 108 55 26 39 53 34 146 -31 44 -31 130 -117 130
-130 0 -3 -21 -36 -46 -73 -129 -183 -115 -275 57 -374 74 -43 70 -31 -6 18
-87 57 -115 95 -115 159 0 57 18 95 111 226 167 236 321 330 471 286 116 -33
178 -108 178 -214 0 -231 -183 -437 -450 -508 -36 -10 -66 -18 -67 -19 -2 -1
11 -29 28 -62 29 -58 68 -187 69 -226 0 -19 -2 -19 -155 -2 -98 12 -82 -32 57
-153 57 -50 95 -90 92 -98 -15 -49 -13 -49 -47 -17 -145 137 -360 201 -642
190 -182 -7 -290 -33 -444 -108 -88 -43 -116 -63 -185 -132 -45 -45 -90 -99
-101 -120 l-20 -37 -130 -5 c-234 -9 -389 -43 -539 -119 l-103 -51 -43 25
c-24 14 -45 30 -47 35 -1 6 26 25 62 44 36 18 93 54 127 81 65 49 194 178 186
185 -2 3 -69 7 -149 10 -169 6 -319 27 -406 56 -71 23 -69 22 -77 69 -6 33 -5
36 36 54 40 19 135 103 126 112 -3 2 -25 -15 -49 -39 -90 -86 -185 -106 -324
-68 -137 38 -220 85 -315 181 -113 112 -163 205 -164 300 -2 111 56 184 168
211 66 16 215 6 288 -20 106 -37 220 -132 335 -278 36 -46 67 -83 69 -83 4 0
-26 50 -36 60 -3 3 -25 32 -50 65 -24 33 -62 77 -83 98 -43 42 -43 44 7 21 42
-21 79 -13 94 21 6 13 18 68 27 121 20 122 25 133 48 91 10 -17 33 -42 51 -55
28 -19 34 -30 39 -74 4 -32 14 -60 27 -73 25 -27 99 -50 129 -40 33 10 67 63
110 172 53 134 124 274 151 298 12 11 44 48 71 81 46 58 129 115 137 94 2 -5
-11 -36 -28 -70 -17 -34 -29 -64 -27 -66 2 -3 19 15 37 38 37 48 95 95 159
127 51 26 172 60 219 60 l33 1 -63 -50z m-1431 -142 c-50 -63 -60 -97 -55
-182 5 -80 27 -130 95 -213 36 -45 36 -52 0 -29 -60 39 -216 71 -297 61 -73
-9 -147 -38 -182 -72 -15 -14 -28 -24 -28 -21 0 26 57 192 82 241 76 145 236
253 381 256 l38 1 -34 -42z m2398 -1136 c239 -70 383 -195 405 -351 22 -160
-93 -319 -305 -422 -149 -72 -311 -108 -488 -109 -71 0 -83 3 -125 31 -26 18
-67 53 -92 78 -104 106 -177 150 -257 153 -39 2 -47 -2 -76 -35 -32 -37 -33
-38 -49 -20 -26 28 -64 122 -72 174 -12 79 23 181 88 262 93 116 312 224 521
258 28 4 124 6 215 4 129 -2 180 -7 235 -23z m-1083 -442 c-4 -105 37 -218
101 -279 20 -18 23 -27 15 -40 -15 -25 7 -92 43 -131 17 -17 51 -41 75 -52 24
-10 44 -25 44 -32 0 -33 65 -139 112 -181 57 -52 138 -81 191 -70 44 10 107
42 139 72 l27 26 -21 28 c-23 31 -37 97 -30 151 l4 35 91 7 c51 4 120 13 154
20 l62 13 18 -45 c20 -53 22 -158 5 -219 -50 -171 -257 -288 -512 -287 -164 0
-289 49 -409 160 -90 83 -134 147 -236 343 -113 218 -161 289 -240 353 -67 54
-129 79 -204 80 -28 1 -51 4 -51 8 0 9 180 66 255 81 82 16 205 27 295 25 l75
-1 -3 -65z m1613 -14 c28 -13 82 -47 120 -76 39 -30 107 -82 153 -117 155
-116 202 -168 202 -223 0 -50 -46 -141 -88 -173 -20 -15 -69 -52 -108 -82 -43
-33 -89 -58 -114 -64 -53 -12 -158 2 -209 28 -20 11 -66 23 -102 27 -153 16
-240 96 -282 257 l-15 58 47 23 c147 75 274 220 296 339 8 42 11 43 100 3z
m-2525 -27 c37 -8 85 -37 145 -87 6 -5 33 -21 60 -37 65 -37 222 -155 259
-193 68 -72 34 -198 -72 -271 -31 -22 -66 -48 -78 -59 -65 -62 -163 -72 -274
-29 -36 14 -91 28 -123 31 -138 15 -212 102 -253 300 -14 66 -12 133 7 182 23
64 122 138 213 160 64 16 62 16 116 3z m455 -64 c28 -12 66 -38 86 -56 37 -36
109 -123 109 -133 0 -20 -262 71 -365 126 -43 22 -85 57 -85 69 0 13 102 27
155 22 28 -3 73 -15 100 -28z"/>
<path d="M6055 7508 c-37 -61 -96 -121 -153 -155 -56 -33 -47 -42 13 -12 59
30 128 98 155 155 31 63 20 72 -15 12z"/>
<path d="M6096 7419 c-22 -33 -112 -96 -153 -109 -52 -17 -66 -32 -23 -24 56
11 124 49 163 93 20 23 37 46 37 51 0 15 -8 12 -24 -11z"/>
<path d="M5354 7409 c-17 -5 -37 -15 -43 -22 -9 -12 3 -15 67 -20 42 -3 96
-13 120 -21 36 -13 42 -13 42 -1 0 22 -69 62 -115 68 -22 3 -54 1 -71 -4z"/>
<path d="M4683 7299 c-31 -20 -80 -85 -71 -94 3 -3 35 14 73 36 37 23 83 46
102 51 46 12 32 28 -25 28 -30 0 -59 -8 -79 -21z"/>
<path d="M3517 7225 c11 -35 62 -102 100 -134 35 -29 141 -77 150 -68 2 2 -22
17 -54 33 -56 28 -135 97 -180 159 -15 19 -20 23 -16 10z"/>
<path d="M5997 7189 c7 -7 15 -10 18 -7 3 3 -2 9 -12 12 -14 6 -15 5 -6 -5z"/>
<path d="M5473 7170 c-49 -29 -76 -91 -71 -161 5 -73 39 -120 103 -144 43 -17
47 -17 91 0 122 46 135 236 20 306 -40 24 -102 24 -143 -1z m83 -111 c8 -14
-18 -31 -30 -19 -9 9 0 30 14 30 5 0 12 -5 16 -11z m50 -54 c8 -34 -1 -55 -26
-55 -28 0 -48 43 -30 65 20 24 49 18 56 -10z"/>
<path d="M3500 7102 c0 -15 65 -69 112 -93 22 -11 66 -23 97 -25 l56 -4 -60
18 c-72 22 -117 45 -167 84 -21 16 -38 25 -38 20z"/>
<path d="M4692 7054 c-113 -58 -117 -246 -7 -314 128 -79 258 91 183 240 -40
77 -111 107 -176 74z m38 -119 c0 -8 -7 -15 -15 -15 -8 0 -15 7 -15 15 0 8 7
15 15 15 8 0 15 -7 15 -15z m55 -65 c0 -13 -7 -28 -17 -33 -34 -22 -66 41 -36
71 17 17 53 -9 53 -38z"/>
<path d="M5293 6625 c-182 -33 -288 -135 -268 -256 16 -96 157 -169 326 -169
256 0 467 159 395 298 -60 115 -241 166 -453 127z m199 -55 c79 -22 68 -87
-17 -109 -55 -14 -106 -6 -134 20 -25 24 -26 28 -6 57 26 36 93 49 157 32z"/>
<path d="M6410 5932 c-24 -20 -25 -28 -15 -157 7 -88 7 -91 -19 -122 -15 -18
-36 -35 -47 -38 -16 -5 -18 -10 -8 -21 14 -18 41 -18 82 0 53 22 85 63 107
136 34 114 70 119 78 10 2 -33 7 -60 11 -60 11 0 31 64 31 101 0 106 -149 208
-220 151z"/>
<path d="M6122 5926 c-27 -14 -62 -64 -62 -87 0 -9 -13 -43 -30 -75 -16 -32
-30 -62 -30 -66 0 -14 86 -57 127 -64 54 -8 80 8 127 78 l35 51 6 -29 c11 -49
12 -50 24 -21 15 38 14 136 -2 167 -25 51 -138 78 -195 46z"/>
<path d="M6641 5914 c-9 -21 -9 -32 3 -55 8 -16 17 -43 21 -59 9 -39 29 -33
33 9 3 29 6 32 28 28 21 -4 24 0 24 23 0 34 -42 80 -73 80 -16 0 -28 -9 -36
-26z"/>
<path d="M3949 5917 c-26 -20 -32 -56 -19 -119 17 -80 2 -131 -46 -160 -41
-24 -36 -38 16 -38 53 0 113 56 129 120 30 115 71 124 71 15 0 -57 14 -64 30
-15 24 74 0 136 -75 184 -42 28 -80 33 -106 13z"/>
<path d="M3694 5910 c-27 -11 -64 -57 -64 -80 0 -9 -11 -39 -25 -66 -14 -27
-25 -55 -25 -61 0 -18 93 -63 129 -63 34 0 78 38 108 91 l18 34 3 -32 c3 -35
16 -43 26 -17 10 26 7 121 -5 147 -22 48 -105 72 -165 47z"/>
<path d="M4150 5895 c-7 -18 -5 -35 4 -58 8 -17 17 -40 20 -49 8 -27 24 -21
28 10 2 19 9 27 23 27 11 0 20 6 19 13 -1 6 -2 19 -2 27 -3 22 -39 55 -62 55
-13 0 -24 -10 -30 -25z"/>
<path d="M6460 7273 c-37 -38 -131 -97 -205 -129 -56 -24 -66 -32 -61 -49 3
-11 14 -52 25 -91 30 -108 37 -263 17 -360 -16 -79 -16 -80 9 -139 13 -33 25
-67 25 -75 0 -9 16 -22 38 -29 20 -8 54 -25 74 -38 21 -12 40 -23 43 -23 22 0
91 283 106 440 12 126 7 289 -11 411 -19 123 -20 124 -60 82z"/>
<path d="M3125 6740 c21 -194 90 -418 183 -597 9 -18 19 -33 23 -33 3 0 14 19
23 43 8 23 27 54 41 69 42 46 127 104 178 123 26 10 47 19 47 20 0 1 -20 37
-45 81 -25 43 -57 116 -71 160 l-26 81 -51 7 c-73 8 -257 71 -296 100 -11 9
-12 0 -6 -54z"/>
<path d="M4370 5867 c0 -103 -55 -202 -148 -267 -31 -22 -82 -58 -113 -81 -40
-30 -69 -43 -103 -46 -25 -3 -46 -9 -46 -13 0 -10 220 -113 305 -143 188 -66
468 -106 658 -92 60 4 105 10 100 14 -4 4 -37 18 -72 30 -84 30 -161 80 -239
155 -92 88 -157 181 -237 340 -78 154 -105 181 -105 103z"/>
<path d="M5825 5664 c-6 -34 -23 -101 -32 -128 -5 -14 8 -9 48 21 30 22 54 44
54 49 0 6 -14 27 -32 48 l-32 39 -6 -29z"/>
<path d="M6458 4864 c-28 -15 -36 -38 -18 -49 11 -7 70 22 70 34 0 22 -26 29
-52 15z"/>
<path d="M3645 4802 c-3 -3 -5 -59 -5 -124 0 -108 2 -119 18 -116 12 2 18 14
20 41 3 33 6 37 31 37 16 0 40 9 55 21 48 38 26 136 -31 140 -10 1 -32 2 -50
4 -18 1 -35 0 -38 -3z m103 -71 c4 -27 -20 -51 -50 -51 -14 0 -18 8 -18 41 0
39 1 40 33 37 25 -2 33 -8 35 -27z"/>
<path d="M4043 4798 c-16 -21 -83 -196 -83 -218 0 -28 29 -25 40 5 8 22 16 25
55 25 39 0 47 -4 57 -25 12 -26 32 -33 43 -15 7 12 -69 208 -89 228 -10 11
-15 11 -23 0z m32 -120 c6 -25 5 -28 -19 -28 -30 0 -29 -2 -15 39 12 35 24 31
34 -11z"/>
<path d="M4415 4802 c-75 -16 -72 -93 5 -132 44 -22 51 -43 21 -60 -25 -13
-24 -13 -51 10 -25 22 -40 18 -40 -9 0 -28 28 -46 70 -46 49 0 80 27 80 70 0
34 -17 54 -65 76 -44 21 -40 45 8 42 34 -2 38 0 35 19 -3 23 -32 37 -63 30z"/>
<path d="M4700 4802 c-6 -2 -10 -12 -10 -23 0 -14 7 -19 25 -19 25 0 25 -1 25
-87 0 -94 8 -120 34 -110 13 5 16 24 16 102 l0 95 25 0 c23 0 45 24 32 36 -5
6 -132 11 -147 6z"/>
<path d="M5061 4802 c-7 -2 -11 -48 -11 -123 l0 -120 72 3 c60 2 73 6 76 21 3
14 -5 17 -52 17 -55 0 -56 0 -56 29 0 28 3 30 42 33 31 2 44 8 46 21 3 14 -4
17 -42 17 -44 0 -46 1 -46 30 0 29 1 30 50 30 36 0 52 4 57 15 3 9 4 18 1 20
-5 5 -124 11 -137 7z"/>
<path d="M6123 4802 l-33 -3 0 -120 c0 -109 2 -120 18 -117 12 2 18 14 20 41
4 49 24 48 58 -3 42 -64 76 -45 37 21 -16 26 -16 29 0 47 20 22 22 81 5 105
-16 21 -62 33 -105 29z m75 -70 c5 -30 -14 -52 -44 -52 -21 0 -24 5 -24 41 0
39 1 40 33 37 25 -2 33 -8 35 -26z"/>
<path d="M5402 4683 l3 -118 60 0 c49 0 60 3 63 18 3 14 -4 17 -42 17 l-46 0
0 100 c0 94 -1 100 -20 100 -20 0 -21 -5 -18 -117z"/>
<path d="M5732 4683 l3 -118 75 0 c60 0 75 3 75 15 0 11 -15 16 -54 20 -50 5
-55 7 -58 32 -3 26 -1 27 44 30 35 2 48 7 48 18 0 10 -14 17 -45 20 -25 3 -44
8 -42 13 1 4 2 16 2 27 0 17 7 20 43 20 47 0 73 12 63 29 -4 6 -38 11 -82 11
l-75 0 3 -117z"/>
<path d="M6450 4680 c0 -110 2 -121 18 -118 15 3 17 17 17 118 0 101 -2 115
-17 118 -16 3 -18 -8 -18 -118z"/>
<path d="M6731 4691 c-24 -60 -40 -114 -37 -120 11 -18 26 -13 38 14 10 21 18
25 58 25 40 0 48 -4 58 -25 13 -28 30 -33 38 -11 9 23 -77 226 -96 226 -11 0
-29 -32 -59 -109z m76 0 c12 -33 8 -41 -19 -41 -19 0 -22 10 -12 48 8 30 17
28 31 -7z"/>
<path d="M1 2303 l-1 -2303 2283 2 c1255 1 2264 3 2242 5 -300 23 -415 38
-630 79 -1464 282 -2711 1221 -3375 2543 -129 257 -198 424 -283 687 -122 376
-200 780 -226 1169 -5 66 -9 -916 -10 -2182z"/>
<path d="M9590 4505 c0 -31 -7 -122 -15 -203 -191 -1837 -1415 -3397 -3155
-4022 -414 -148 -891 -246 -1335 -273 -27 -2 977 -4 2233 -5 l2282 -2 0 2280
c0 1254 -2 2280 -5 2280 -3 0 -5 -25 -5 -55z"/>
<path d="M3360 4364 c-14 -2 -52 -9 -85 -15 -95 -16 -198 -56 -360 -137 -461
-232 -793 -560 -1013 -998 -88 -176 -104 -317 -50 -436 42 -91 137 -168 208
-168 16 0 30 -3 30 -8 0 -4 -11 -57 -25 -117 -17 -78 -25 -139 -25 -210 0
-143 27 -228 99 -319 17 -22 28 -43 24 -46 -19 -17 -147 -60 -209 -71 -57 -10
-72 -9 -98 4 -107 53 -201 49 -288 -12 -60 -43 -88 -95 -88 -166 0 -148 123
-267 350 -341 72 -23 107 -28 231 -32 160 -5 228 3 422 49 521 122 992 372
1365 724 29 27 56 51 60 52 4 2 22 -30 41 -70 51 -108 156 -208 281 -269 191
-93 330 -87 537 21 42 22 78 39 79 38 1 -1 -5 -33 -13 -72 -69 -324 177 -633
528 -662 117 -9 211 18 277 81 63 59 66 70 67 296 1 113 5 224 9 247 l8 43 48
-43 c94 -85 238 -137 377 -137 103 0 174 25 240 85 l49 43 23 -49 c86 -189
385 -323 664 -297 232 22 483 182 626 400 118 180 106 394 -31 562 -24 28 -61
69 -83 90 -22 21 -73 70 -112 109 -64 62 -73 74 -73 106 0 34 32 121 45 121 3
0 21 -17 40 -39 49 -54 124 -85 191 -78 62 6 96 23 146 70 48 45 139 186 188
290 128 273 127 410 -6 556 -98 109 -197 151 -352 151 -127 0 -224 -33 -389
-132 -18 -11 -33 -17 -33 -14 0 4 11 34 25 68 32 78 32 122 2 152 -22 22 -32
23 -230 30 -250 8 -265 4 -291 -85 -4 -15 -12 -13 -60 11 -77 39 -165 47 -274
26 -46 -9 -97 -23 -113 -32 -37 -18 -37 -15 0 100 51 158 58 207 38 269 -40
127 -177 218 -330 219 -142 1 -221 -75 -386 -367 -145 -257 -183 -327 -286
-533 l-106 -213 -28 20 c-15 11 -34 27 -41 36 -41 50 -209 101 -298 91 -112
-13 -275 -74 -364 -137 -14 -11 -28 -19 -31 -19 -2 0 -7 55 -10 123 -8 140
-41 286 -87 386 -84 179 -257 375 -437 495 -113 75 -186 107 -306 136 -79 19
-256 33 -307 24z m220 -129 c155 -36 289 -115 428 -252 135 -132 209 -251 254
-409 19 -67 22 -103 23 -239 0 -150 -2 -165 -29 -245 -139 -413 -496 -843
-936 -1130 -343 -223 -791 -388 -1167 -431 -126 -14 -253 4 -370 53 -118 50
-192 131 -150 166 30 25 66 24 119 -3 49 -26 59 -27 138 -22 96 7 203 34 276
71 27 13 78 38 114 55 87 40 243 133 247 147 2 7 -17 14 -47 18 -125 17 -226
82 -272 174 -19 40 -23 63 -23 147 0 55 6 125 14 155 23 96 69 235 101 304 16
37 30 68 30 70 0 10 122 213 169 281 220 320 420 537 561 610 49 25 118 16
159 -21 62 -55 62 -79 -4 -174 -70 -101 -214 -355 -291 -515 -146 -303 -231
-567 -254 -787 -13 -129 -13 -126 8 -137 14 -7 25 -3 49 17 17 15 68 58 114
96 420 344 795 774 945 1081 85 175 109 361 59 460 -13 27 -21 53 -18 59 3 6
3 8 -2 4 -4 -4 -25 8 -46 27 -248 224 -771 68 -1273 -379 -191 -171 -412 -475
-424 -586 -6 -54 -17 -64 -53 -43 -42 25 -59 64 -59 136 0 74 13 117 71 230
165 325 442 619 754 803 183 108 328 174 450 205 88 22 248 24 335 4z m2533
-50 c47 -22 71 -65 62 -112 -10 -56 -132 -413 -240 -708 -195 -528 -295 -874
-384 -1325 -45 -228 -53 -307 -54 -493 l0 -168 -26 -17 c-19 -13 -47 -17 -117
-17 -84 1 -98 4 -159 35 -167 85 -249 224 -226 381 57 375 165 793 288 1104
86 219 138 333 269 590 101 199 230 437 278 514 14 22 26 43 26 46 0 13 107
159 130 177 30 24 94 21 153 -7z m-2466 -484 c86 -43 99 -93 64 -233 -36 -138
-113 -269 -300 -508 -107 -137 -463 -510 -469 -492 -2 6 10 48 26 94 91 256
254 575 438 858 26 41 53 95 60 120 12 47 9 123 -7 152 -20 37 -12 41 69 35
51 -3 93 -12 119 -26z m3433 -11 c0 -26 -153 -318 -196 -375 -20 -26 -28 -29
-71 -26 -26 1 -49 4 -50 5 -2 1 15 43 37 92 22 49 56 140 76 202 l37 112 84 0
c48 0 83 -4 83 -10z m-465 -44 c54 -25 105 -76 105 -106 0 -23 -17 -36 -57
-45 -18 -3 -68 -30 -110 -59 -115 -79 -139 -89 -185 -82 -83 13 -158 76 -158
132 0 58 91 128 213 164 84 25 133 24 192 -4z m1185 -71 c60 -31 126 -97 141
-143 6 -19 9 -53 7 -76 -11 -91 -135 -346 -211 -432 -47 -53 -75 -57 -111 -14
-29 35 -29 29 37 212 38 105 64 205 54 214 -26 27 -228 -161 -345 -323 -60
-82 -105 -175 -121 -251 -28 -132 -10 -167 173 -347 146 -142 173 -180 195
-269 31 -125 -69 -294 -245 -416 -100 -69 -189 -106 -294 -121 -74 -10 -96
-10 -170 5 -47 10 -118 33 -157 52 -82 39 -167 117 -176 160 -13 72 94 303
151 325 17 6 34 4 57 -7 41 -19 49 -38 31 -67 -27 -41 -56 -146 -56 -201 0
-46 4 -57 21 -67 17 -9 32 -5 87 22 132 65 258 228 270 348 5 52 7 49 -138
173 -77 66 -159 159 -187 213 -24 44 -43 124 -43 177 0 237 325 614 685 792
128 63 128 63 223 65 59 1 82 -4 122 -24z m-1383 -338 c56 -30 93 -67 93 -96
0 -15 -20 -87 -45 -161 -53 -155 -70 -215 -130 -435 -55 -202 -72 -292 -81
-428 -6 -103 -6 -110 16 -139 18 -24 21 -36 14 -56 -13 -36 -76 -83 -122 -92
-98 -18 -255 34 -325 107 -27 27 -39 51 -48 92 -26 125 11 337 95 548 135 339
269 592 349 659 28 24 37 26 92 22 34 -3 75 -13 92 -21z m-1387 -30 c50 -25
73 -43 98 -82 30 -44 33 -56 30 -101 -7 -85 -48 -152 -166 -273 -192 -197
-408 -311 -554 -294 l-47 6 -15 -54 c-39 -134 -43 -231 -10 -243 53 -20 221
62 359 174 93 76 102 82 137 77 58 -8 98 -41 98 -82 0 -64 -135 -211 -275
-300 -195 -123 -372 -106 -531 50 -105 103 -127 183 -95 340 23 112 100 283
166 370 133 174 372 360 542 420 101 36 180 34 263 -8z m1623 -703 c24 -66 53
-117 96 -172 23 -28 41 -53 41 -56 0 -2 -19 -7 -42 -11 -86 -14 -139 -56 -205
-160 -18 -28 -39 -68 -48 -89 -13 -30 -19 -36 -26 -25 -30 48 13 272 128 669
l28 95 6 -105 c4 -58 14 -123 22 -146z"/>
<path d="M4828 2976 c-83 -51 -146 -102 -225 -183 -66 -67 -129 -151 -120
-160 11 -11 156 81 224 143 39 35 95 96 124 136 30 40 58 76 62 79 5 4 8 11 6
17 -2 5 -34 -9 -71 -32z"/>
</g>
</svg>
